<svg height="100%" viewBox="0 0 657 1200" fill="none" version="1.1" id="svg4388">
<defs id="defs4392"/>
<g id="Layer_1-2" transform="matrix(1.7527752,0,0,1.7394366,0.10450546,-0.16283437)">
<g id="g4385">
<g id="trapezius">
<path class="body-map__muscle" d="m 244,121.6 c -10.2,0.7 -16.1,6.6 -19.2,10 -0.2,0.2 -0.4,0.4 -0.6,0.6 l -0.3,0.4 c -4.1,4.5 -7.3,3.9 -14.4,2.6 -5.1,-0.9 -12.1,-2.2 -22.6,-2.2 -10.5,0 -17.5,1.3 -22.6,2.2 -7.1,1.3 -10.3,1.9 -14.4,-2.6 0,0 0,0 0,-0.1 l -0.3,-0.4 c -0.2,-0.2 -0.4,-0.4 -0.6,-0.6 -3.1,-3.4 -9,-9.3 -19.2,-10 0.4,-0.2 1.1,-0.7 2,-1.2 1.8,-1.1 4.3,-2.7 6.1,-3.5 1.1,-0.5 3.6,-1.6 6.5,-2.8 2.9,-1.2 6,-2.5 8.3,-3.5 0,0 0.1,0 0.1,0 11.2,-3.1 23.1,-2.5 29.5,-2.1 0.7,0 1.3,0.1 1.8,0.1 1.9,0.1 3.8,0.1 5.6,0 0.5,0 1.2,-0.1 1.8,-0.1 6.4,-0.3 18.3,-0.9 29.5,2.1 0,0 0.1,0 0.1,0 v 0 c 2.3,1 5.4,2.3 8.3,3.5 2.9,1.2 5.4,2.3 6.5,2.8 1.8,0.8 4.3,2.4 6.1,3.5 0.9,0.6 1.6,1 2,1.3 z" fill="currentColor" id="path4149"/>
</g>
<g id="calves" class="body-map__muscle">
<path d="m 242.1,570.4 v 0 c -0.2,1.1 -0.4,2.6 -0.6,4.1 -0.5,5.3 -1.2,11.8 -6.3,12.9 -2,0.4 -7.9,1.7 -13.3,-12.5 -3.6,-9.5 -3.6,-9.5 0,0 -1.7,-5.7 -1.9,-13.5 0.7,-38.2 v 0 c 0,0 0,0 0,0 0,-0.1 0,-0.1 0,-0.2 0,0 0,0 0,-0.1 0.1,-0.6 0.1,-1.2 0.2,-1.8 0,0 0,0 0,-0.1 v 0 c 0.7,-4 2.7,-7 5.7,-8.4 3.2,-1.5 7.2,-1 10.5,1.4 0.3,0.2 0.5,0.4 0.8,0.5 4.4,3.9 3.9,26.3 2.3,42.4 z" fill="currentColor" id="path4152"/>
<path d="m 151.8,574.9 c 0,0 0,0 0,0 -5.4,14.2 -11.4,13 -13.3,12.6 -5.1,-1.1 -5.8,-7.6 -6.3,-12.9 -0.2,-1.6 -0.3,-3 -0.6,-4.1 v 0 c -1.6,-16.2 -2.1,-38.5 2.3,-42.5 0.3,-0.1 0.6,-0.3 0.8,-0.5 3.2,-2.4 7.2,-2.9 10.5,-1.4 3,1.4 5.1,4.5 5.7,8.6 v 0 c 0.1,0.5 0.1,1.1 0.2,1.6 0,0 0,0 0,0.1 v 0 c 0,0 0,0.1 0,0.1 0,0.1 0,0.1 0,0.2 0,0 0,0.1 0,0.1 2.6,24.7 2.4,32.5 0.7,38.1 z" fill="currentColor" id="path4154"/>
</g>
<g id="calves" class="body-map__muscle">
<path d="m 269.7,554 v 0 c -0.9,16.2 -2.8,31.2 -10.7,31.7 -0.1,0 -0.2,0 -0.3,0 -2.8,0 -5.1,-2.6 -7.1,-5.8 0,-0.1 0,-0.1 0,-0.2 -5.7,-9.7 -12.1,-44.4 -3.1,-55.1 0,0 0,-0.1 0,-0.1 1.1,-1 2.1,-2 3.2,-3 3.3,-3.3 6.5,-6.3 8.8,-5.7 1,0.3 1.8,1.2 2.5,2.9 0.2,0.5 0.3,1 0.5,1.6 0,0 0,0 0,0.1 2.9,8.6 6,18.9 6.2,33.6 z" fill="currentColor" id="path4157"/>
<path d="m 122.1,579.8 c 0,0 0,0.1 0,0.2 -2,3.3 -4.4,6 -7.4,5.8 -7.9,-0.5 -9.8,-15.5 -10.7,-31.7 v 0 c 0.2,-14.7 3.3,-25 6.1,-33.7 0,0 0,0 0,-0.1 0.2,-0.5 0.3,-1 0.5,-1.6 0.6,-1.7 1.4,-2.6 2.4,-2.9 2.3,-0.6 5.5,2.4 8.8,5.7 1.1,1 2.1,2.1 3.2,3 0,0 0,0.1 0,0.1 9.1,10.8 2.7,45.5 -2.9,55.2 z" fill="currentColor" id="path4159"/>
</g>
<g id="hamstrings" class="body-map__muscle">
<path d="m 227.8,493.6 v 0 c -1.2,1.3 -2.8,2.1 -4.8,2.1 -7.3,0 -11.8,-11.3 -16.1,-40.3 0,-0.1 -0.1,-0.2 -0.3,-0.2 0,0 0,0 0,0 -2,-9.6 -4.3,-17.7 -6.6,-26.1 -0.8,-2.7 -1.6,-5.5 -2.3,-8.3 0,0 0,0 0,0 -3.9,-17.1 -1.4,-22 1.3,-27.1 2,-3.9 4.1,-7.9 3.4,-17.4 -0.1,-1.7 0.2,-3 1,-3.9 1.2,-1.3 3.2,-1.8 5.4,-1.9 0,0 0.1,0 0.1,0 0.7,0 1.4,-0.1 2.2,-0.1 0.2,0 0.4,0 0.6,0 0.2,0 0.4,0 0.6,0 0.4,0 0.7,0 1.1,-0.1 0.6,0 1.1,-0.1 1.7,-0.1 2.1,-0.1 5.4,-0.5 9.1,-1.7 0.5,11.5 1.4,23.5 2.5,35.3 v 0 c 0.7,11.6 1.5,22 2.1,31.2 2.4,32.5 3.7,50.7 -1,58.6 z" fill="currentColor" id="path4162"/>
<path d="m 176,420.6 c 0,0 0,0.1 0,0 0,0.1 0,0.1 0,0.1 0,0 0,0 0,0.1 -0.8,2.9 -1.6,5.6 -2.3,8.3 -2.4,8.4 -4.6,16.5 -6.6,26.1 0,0 0,0 -0.1,0 -0.1,0 -0.3,0.1 -0.3,0.2 -4.3,29 -8.8,40.3 -16.1,40.3 -2,0 -3.5,-0.8 -4.7,-2.1 -4.7,-7.9 -3.4,-26.1 -1,-58.9 0.7,-9.2 1.4,-19.6 2.1,-31.2 0,0 0,0 0,-0.1 1.1,-11.8 2,-23.8 2.5,-35.3 3.7,1.2 7.1,1.5 9.1,1.7 0.6,0 1.1,0.1 1.7,0.1 0.4,0 0.7,0 1.1,0.1 0.2,0 0.4,0 0.6,0 0,0 0.1,0 0.1,0 0.9,0.1 1.7,0.1 2.6,0.2 0,0 0.1,0 0.1,0 2.1,0.2 4.2,0.6 5.4,1.9 0.8,0.9 1.2,2.2 1,3.9 -0.7,9.5 1.4,13.5 3.4,17.4 2.8,5.4 5.3,10.2 1.4,27.2 z" fill="currentColor" id="path4164"/>
</g>
<g id="inner-thigh" class="body-map__muscle">
<path d="m 203.1,371.9 c -0.9,1 -1.3,2.5 -1.1,4.3 0.7,9.4 -1.4,13.3 -3.4,17.1 -2.3,4.4 -4.5,8.6 -2.8,20.1 -0.4,-1.7 -0.9,-3.5 -1.3,-5.3 -4,-16.9 -4.7,-25.1 -5.5,-34.6 -0.3,-3.7 -0.6,-7.6 -1.2,-12.1 0.8,2.2 1.9,4 3.3,5.3 3.2,3 7.8,3.8 13,3.8 0.4,0 0.8,0 1.3,0 -0.9,0.3 -1.7,0.7 -2.3,1.4 z" fill="currentColor" id="path4167"/>
<path d="m 185.8,361.5 c -0.5,4.6 -0.9,8.4 -1.2,12.1 -0.8,9.5 -1.5,17.7 -5.5,34.6 -0.4,1.8 -0.9,3.5 -1.3,5.3 1.7,-11.5 -0.5,-15.7 -2.8,-20.1 -2,-3.8 -4.1,-7.8 -3.4,-17.1 0.1,-1.9 -0.2,-3.3 -1.1,-4.3 -0.6,-0.7 -1.4,-1.1 -2.3,-1.5 0.4,0 0.8,0 1.3,0 5.2,0 9.8,-0.8 13,-3.8 1.5,-1.3 2.6,-3.1 3.3,-5.2 z" fill="currentColor" id="path4169"/>
</g>
<g id="hamstrings" class="body-map__muscle">
<path d="m 256.4,465 c -0.3,1.2 -0.4,2.5 -0.4,3.9 v 0 c -2.1,8.6 -5.2,17.9 -9.2,18.4 -0.3,0 -0.5,0 -0.8,0 -9.7,-6.3 -19,-67.8 -21.2,-119.1 4.9,-1.6 10.3,-4.5 14,-10 3,-4.4 4.5,-9.7 4.6,-15.9 0,0 0.1,-0.1 0.1,-0.2 V 342 c 0,-0.1 0,-0.2 -0.1,-0.2 v 0 c 0,-5.4 -1.1,-11.4 -3.2,-18.1 -0.9,-2.9 -1.7,-5.6 -2.4,-8.2 -2.3,-8.4 -4.1,-15.1 -10.1,-19.6 9.4,4.6 20.3,13.1 21.1,21.3 v 0 c 0,0.9 0,1.6 -0.1,2.2 -0.2,2.4 -0.3,4.4 2.2,11.7 5,14.8 18.8,83.1 5.5,133.9 z" fill="currentColor" id="path4172"/>
<path d="m 149,368.1 c -0.5,11.6 -1.4,23.6 -2.5,35.5 -3.9,40.7 -11.2,78.7 -18.7,83.6 -0.3,0.1 -0.5,0.1 -0.8,0 -4,-0.5 -7.1,-9.8 -9.2,-18.4 v 0 c 0,-1.4 -0.1,-2.7 -0.4,-3.9 -13.3,-50.7 0.5,-119.1 5.6,-133.9 2.5,-7.3 2.4,-9.4 2.2,-11.7 -0.1,-0.7 -0.1,-1.4 -0.1,-2.3 0,-0.6 0,-0.6 0,0 0.9,-8.2 11.8,-16.6 21.1,-21.3 -6,4.5 -7.8,11.2 -10.1,19.6 -0.7,2.6 -1.5,5.3 -2.4,8.2 -2.1,6.7 -3.2,12.7 -3.2,18.1 v 0 c 0,0.1 0,0.2 -0.1,0.2 0,0 0,0 0,0.1 0,0.1 0,0.1 0.1,0.2 0.1,6.2 1.6,11.5 4.6,15.9 3.6,5.5 9,8.5 13.9,10.1 z" fill="currentColor" id="path4174"/>
</g>
<g id="glutes" class="body-map__muscle">
<path d="m 242.8,341.8 v 0 c 0,6.3 -1.5,11.7 -4.5,16 -6.6,9.6 -18.4,11.3 -23.2,11.6 -0.6,0 -1.1,0.1 -1.7,0.1 v 0 c -0.4,0 -0.7,0 -1.1,0.1 -0.2,0 -0.4,0 -0.6,0 -0.2,0 -0.4,0 -0.5,0 -0.7,0 -1.5,0.1 -2.2,0.1 -0.1,0 -0.2,0 -0.3,0 -6.9,0.4 -13.1,0.2 -17.1,-3.5 -3,-2.8 -4.4,-7.4 -4.4,-14 v -34.6 c 0,-10.5 3,-18.1 8.9,-22.5 5,-3.7 11.3,-4.6 16.9,-4.1 -6.4,14.9 0.7,19.6 9.7,25.5 7.8,5.3 16.7,11.1 20.1,25.3 z" fill="currentColor" id="path4177"/>
<path d="m 186.6,317.8 v 34.6 c 0,6.6 -1.4,11.2 -4.4,14 -3.9,3.6 -10,3.8 -16.8,3.5 -0.1,0 -0.2,0 -0.3,0 -0.9,-0.1 -1.7,-0.1 -2.5,-0.2 -0.8,0 -1.5,-0.1 -2.2,-0.1 v 0 c -0.6,0 -1.1,-0.1 -1.7,-0.1 -4.8,-0.3 -16.7,-2 -23.2,-11.6 -3,-4.4 -4.5,-9.7 -4.5,-16 3.4,-14.2 12.3,-20 20.1,-25.1 9,-5.9 16.1,-10.5 9.7,-25.5 5.6,-0.5 12,0.4 16.9,4.1 5.9,4.3 8.9,11.9 8.9,22.4 z" fill="currentColor" id="path4179"/>
</g>
<g id="glutes" class="body-map__muscle">
<path d="m 242.7,339.6 c -3.8,-12.9 -12.6,-18.7 -19.8,-23.4 -8.8,-5.8 -15.8,-10.3 -9.4,-25 2.1,0.2 4.2,0.6 6,1.2 1.1,0.3 2.1,0.7 3,1.1 0,0 0,0 0,0 0.2,0.1 0.5,0.2 0.7,0.3 0.1,0 0.1,0 0.2,0.1 9,4.2 11.1,11.7 13.8,21.6 0.7,2.6 1.5,5.4 2.4,8.3 1.8,5.7 2.9,11 3.1,15.8 z" fill="currentColor" id="path4182"/>
<path d="m 150.8,316.2 c -7.2,4.7 -16,10.5 -19.8,23.4 0.2,-4.8 1.3,-10.1 3.1,-15.8 0.9,-2.9 1.7,-5.6 2.4,-8.3 2.7,-9.9 4.8,-17.4 13.8,-21.6 0.3,-0.1 0.6,-0.3 0.9,-0.4 0.9,-0.4 1.9,-0.8 3,-1.1 1.8,-0.5 3.8,-1 6,-1.2 6.4,14.7 -0.6,19.3 -9.4,25 z" fill="currentColor" id="path4184"/>
</g>
<g id="lowerback" class="body-map__muscle">
<path d="m 220.1,292.1 c -0.2,0 -0.3,-0.1 -0.5,-0.1 -1.9,-0.6 -4,-1 -6.2,-1.2 0,0 0,0 -0.1,0 -5.8,-0.6 -12.4,0.3 -17.6,4.2 -5.1,3.8 -8.1,9.8 -8.9,17.9 -0.8,-8.1 -3.8,-14.1 -8.9,-17.9 -5.2,-3.8 -11.7,-4.7 -17.6,-4.2 0,0 0,0 -0.1,0 -2.2,0.2 -4.3,0.6 -6.2,1.2 -0.2,0 -0.3,0.1 -0.5,0.1 5.4,-4 5.1,-10.7 4.8,-18.3 -0.3,-7 -0.6,-14.8 3.3,-22.3 13.7,-26.1 18.7,-39.9 15.2,-56.1 0.1,0.1 0.1,0.3 0.1,0.4 4,11.4 5.9,16.7 9.7,16.7 3.8,0 5.7,-5.2 9.7,-16.7 0.1,-0.2 0.1,-0.3 0.2,-0.5 -3.5,16.3 1.6,30.1 15.2,56.1 3.9,7.5 3.6,15.3 3.3,22.3 -0.1,7.7 -0.4,14.4 5.1,18.4 z" fill="currentColor"/>
</g>
<g id="lats" class="body-map__muscle">
<path d="m 261.5,178.3 c -1.4,6.7 -2.7,13.1 -0.8,16.4 v 0 c -0.3,1.6 -4.9,22.1 -11.8,33 -6.5,10.4 -6.6,25.7 -6.6,33.9 0,0.9 0,1.8 0,2.5 -0.1,7.5 2.1,32.3 5.2,45.2 0.4,1.7 0.7,3.1 0.9,4.3 -3.5,-9 -16.4,-17 -24.8,-20.4 -0.1,0 -0.1,-0.1 -0.2,-0.1 0,0 -0.1,0 -0.1,0 -0.2,-0.1 -0.4,-0.2 -0.6,-0.3 0,0 0,0 -0.1,0 -7.5,-3.5 -7.2,-10.5 -6.9,-19.2 0.3,-7 0.6,-15 -3.3,-22.5 -15.4,-29.5 -19.8,-42.7 -13.6,-61.6 0,0 0,-0.1 0,-0.1 0.6,-1.8 1.3,-3.6 2.1,-5.6 v 0 c 4.7,-12.5 11.8,-29.5 23.4,-51.1 v 0 l 0.3,-0.4 c 0.1,-0.1 0.3,-0.3 0.4,-0.4 5.4,5.2 11,9.6 17,14.2 3.7,2.9 7.5,5.8 11.5,9.1 2.4,2 4.9,3.5 7.5,4.7 v 0 c 3.8,2.6 2.1,10.6 0.5,18.4 z" fill="currentColor" id="path4190"/>
<path d="m 161.3,251.3 c -4,7.6 -3.6,15.5 -3.4,22.5 0.4,8.7 0.7,15.7 -6.9,19.2 -5,2.4 -5,2.4 0,0 -0.3,0.1 -0.6,0.2 -0.8,0.4 0,0 -0.1,0 -0.1,0 -8.3,3.3 -21.3,11.4 -24.8,20.4 0.2,-1.2 0.5,-2.6 0.9,-4.3 3.1,-13 5.3,-37.8 5.2,-45.2 0,-0.8 0,-1.6 0,-2.5 0,-8.2 -0.1,-23.5 -6.6,-33.9 -6.9,-10.9 -11.4,-31.4 -11.8,-33 v 0 c 2,-3.4 0.7,-9.7 -0.8,-16.5 -1.6,-7.7 -3.3,-15.7 0.6,-18.2 v 0 c 2.6,-1.2 5.1,-2.7 7.5,-4.7 3.9,-3.3 7.8,-6.3 11.5,-9.1 5.9,-4.6 11.5,-8.9 17,-14.2 0.1,0.2 0.3,0.3 0.4,0.4 l 0.3,0.4 v 0 c 9,16.7 15.3,30.7 19.8,42 0,0 0,0.1 0,0.1 0,0.1 0.1,0.1 0.1,0.2 1.3,3.2 2.4,6.1 3.5,8.9 0.8,2 1.4,3.9 2.1,5.7 0,0 0,0.1 0,0.1 6.1,18.6 1.7,31.8 -13.7,61.3 z" fill="currentColor" id="path4192"/>
</g>
<g id="forearms" class="body-map__muscle">
<path d="m 364.1,307.5 c -0.9,3.4 -2.6,6.1 -4.6,7.7 -11,-27.6 -27.4,-52.4 -41.8,-74.2 -4.4,-6.6 -8.5,-12.9 -12.3,-18.9 1.5,-0.7 3.8,0 5.9,0.6 2.4,0.7 4.8,1.4 6,0.1 0.8,-0.8 1,-2.4 0.6,-4.9 0,0.1 0.1,0.1 0.1,0.2 0,0 0,0 0,0 0.6,1.1 1.5,2.1 2.6,3.2 4.3,4 19.1,18.9 27.3,40.3 5.4,14.1 9.9,28.1 12.6,36.5 1.3,4.1 2.2,6.9 2.6,7.8 0.4,0.7 0.7,1.2 1,1.6 z" fill="currentColor" id="path4195"/>
<path d="m 68.2,222.1 c -3.8,6 -7.9,12.3 -12.3,19 -14.4,21.9 -30.7,46.6 -41.8,74.2 -2,-1.6 -3.7,-4.4 -4.6,-7.7 0.3,-0.4 0.6,-0.9 0.9,-1.5 0.4,-1 1.3,-3.7 2.6,-7.8 2.7,-8.4 7.2,-22.4 12.6,-36.5 8.2,-21.4 23,-36.3 27.3,-40.3 1.1,-1 1.9,-2.1 2.6,-3.1 0,0 0,0 0,0 0,0 0,0 0,0 l 0.2,-0.2 c -0.4,2.4 -0.2,4 0.6,4.9 1.2,1.3 3.5,0.6 6,-0.1 2.2,-0.9 4.4,-1.6 5.9,-0.9 z" fill="currentColor" id="path4197"/>
</g>
<g id="forearms" class="body-map__muscle">
<path d="m 359.1,315.6 c -0.5,0.3 -0.9,0.6 -1.4,0.8 -2.8,1.1 -6.6,0.3 -10.4,-2 -2.3,-5 -7.9,-13.4 -20.8,-26.6 -7.9,-8.1 -13.3,-17.4 -18.4,-26.4 -3.2,-5.6 -6.3,-11 -9.9,-16 l -0.2,-0.3 c -5.3,-7.3 -8.1,-11.1 -10.4,-14 5.4,4.6 9.2,6.8 11.7,6.8 0.5,0 0.9,-0.1 1.3,-0.2 2.5,-1 2.7,-4.8 2.9,-8.5 0.2,-3 0.3,-5.8 1.6,-6.7 3.8,6 7.9,12.3 12.3,19 14.3,21.7 30.6,46.5 41.7,74.1 z" fill="currentColor" id="path4200"/>
<path d="m 86.2,231.1 c -2.3,2.9 -5.1,6.7 -10.4,14 l -0.2,0.3 c -3.6,5 -6.7,10.3 -9.9,16 -5.2,9 -10.5,18.3 -18.4,26.4 -12.9,13.3 -18.5,21.6 -20.8,26.6 -3.7,2.3 -7.6,3 -10.4,2 -0.5,-0.2 -1,-0.4 -1.4,-0.8 11,-27.6 27.4,-52.4 41.8,-74.3 4.4,-6.7 8.6,-13 12.3,-19 1.3,0.9 1.4,3.8 1.6,6.7 0.2,3.7 0.4,7.5 2.9,8.5 0.4,0.2 0.8,0.2 1.3,0.2 2.4,0.1 6.2,-2.1 11.6,-6.6 z" fill="currentColor" id="path4202"/>
</g>
<g id="triceps" class="body-map__muscle">
<path d="m 317,222.5 c -1,1 -3.2,0.4 -5.5,-0.3 -2.4,-0.7 -5,-1.5 -6.7,-0.4 -1.6,1 -1.8,4 -2,7.2 -0.2,3.5 -0.4,7.2 -2.6,8.1 -2.5,1 -7.4,-1.8 -15,-8.6 0,0 0,0 0,0 -0.5,-0.6 -1.1,-1.2 -1.7,-1.9 7.7,-25.9 3.9,-32.2 -7.8,-48.9 5.7,6.3 10.1,8 14.1,9.5 4.8,1.8 9.3,3.5 15.2,12.4 1.8,2.7 3.1,4.8 4.3,6.6 2.6,4.1 4.3,6.7 7.8,11 0.7,2.8 0.6,4.5 -0.1,5.3 z" fill="currentColor" id="path4205"/>
<path d="m 90.1,226.6 c -0.6,0.6 -1.2,1.2 -1.7,1.9 0,0 0,0 0,0 -7.6,6.8 -12.4,9.6 -15,8.6 -2.2,-0.9 -2.4,-4.6 -2.6,-8.1 -0.2,-3.2 -0.4,-6.2 -2,-7.2 -1.7,-1.1 -4.2,-0.3 -6.7,0.4 -2.3,0.7 -4.5,1.3 -5.5,0.3 -0.8,-0.8 -0.8,-2.6 -0.3,-5.3 3.5,-4.3 5.2,-6.9 7.8,-10.9 1.2,-1.9 2.5,-4 4.3,-6.7 5.9,-8.9 10.4,-10.6 15.2,-12.4 4,-1.5 8.4,-3.2 14.2,-9.5 -11.6,16.6 -15.4,23 -7.7,48.9 z" fill="currentColor" id="path4207"/>
</g>
<g id="triceps" class="body-map__muscle">
<path d="m 283.2,226.2 c -0.3,-0.3 -0.6,-0.6 -0.9,-0.9 -4.6,-4.8 -16.4,-23.3 -20.9,-30.3 l -0.3,-0.4 c -2,-3.1 -0.6,-9.8 0.8,-16.2 1.5,-7.1 3,-14.3 0.3,-17.7 0.8,0.3 1.6,0.6 2.3,0.9 v 0 c 2.2,3.9 4.3,7.1 6.2,9.8 v 0 c 0,0 0,0.1 0,0.1 1.2,1.8 2.4,3.5 3.5,5 12.5,17.6 16.7,23.6 9,49.7 z" fill="currentColor" id="path4210"/>
<path d="m 112.5,194.6 -0.3,0.4 c -4.4,7 -16.2,25.5 -20.8,30.3 -0.3,0.3 -0.6,0.6 -0.9,0.9 -7.7,-26.1 -3.5,-32.1 8.8,-49.6 1.1,-1.6 2.3,-3.2 3.5,-5 0,0 0,-0.1 0,-0.1 0,0 0,0 0,0 1.9,-2.7 4,-5.9 6.2,-9.8 0.8,-0.3 1.6,-0.6 2.4,-0.9 -2.7,3.4 -1.2,10.6 0.3,17.7 1.4,6.3 2.8,12.9 0.8,16.1 z" fill="currentColor" id="path4212"/>
</g>
<g id="triceps" class="body-map__muscle">
<path d="m 317,216.1 c -3,-3.8 -4.7,-6.4 -7.1,-10.2 -1.2,-1.9 -2.5,-3.9 -4.3,-6.6 -6,-9.1 -10.6,-10.8 -15.5,-12.6 -6.2,-2.3 -13.2,-5 -24.8,-24.9 3.8,1.2 7.4,1.8 10.5,2.1 2,0.2 3.8,0.3 5.1,0.4 0.4,0 0.8,0 1.1,0.1 4.5,0.2 8.9,4 8.9,4 0.1,0.1 12.6,11.1 17,26.5 0,0.1 3.6,8 6,12.2 0.9,1.6 1.3,3.2 1.7,5 0.5,1.2 0.8,2.6 1.4,4 0.3,0.9 0.3,0.9 0,0 z" fill="currentColor" id="path4215"/>
<path d="m 108.4,161.8 c -11.6,19.9 -18.6,22.5 -24.8,24.8 -4.8,1.8 -9.4,3.6 -15.5,12.6 -1.8,2.7 -3.2,4.8 -4.3,6.7 -2.4,3.8 -4,6.3 -7.1,10.1 0,0 0,-0.1 0,-0.1 v 0 c 0.5,-1.4 0.9,-2.7 1.2,-4 0,0 0,-0.1 0,-0.1 0,0 0,-0.1 0,-0.1 0.4,-1.7 0.8,-3.3 1.7,-4.7 2.4,-4.2 6,-12.1 6.1,-12.2 4.3,-15.1 16.6,-26 17,-26.4 v 0 c 0.3,-0.3 4.6,-3.8 8.9,-4 0.3,0 0.7,0 1.1,-0.1 3.3,-0.2 9.3,-0.5 15.7,-2.5 z" fill="currentColor" id="path4217"/>
</g>
<g id="shoulders" class="body-map__muscle">
<path d="m 290.7,167.5 c -1.3,-1 -5,-3.5 -8.7,-3.7 -0.3,0 -0.7,0 -1.1,-0.1 -1.3,-0.1 -3,-0.1 -5,-0.3 l -1,-1.6 c -7.5,-12.1 -16.9,-27.2 -37.2,-38.6 2.7,-0.9 5.8,-1.4 9.4,-1.2 h 0.1 c 0.8,0.1 9.7,1.1 19.2,6.9 9.1,5.5 20.7,16.7 24.3,38.6 z" fill="currentColor" id="path4220"/>
<path d="m 135.9,123.2 c -20.3,11.4 -29.7,26.5 -37.2,38.6 l -1,1.6 c -2,0.2 -3.7,0.3 -5,0.3 -0.4,0 -0.8,0 -1.1,0.1 -3.8,0.2 -7.4,2.7 -8.7,3.7 3.6,-21.9 15.2,-33.1 24.3,-38.7 9.8,-5.9 18.9,-6.8 19.3,-6.9 v 0 c 3.6,0 6.7,0.5 9.4,1.3 z" fill="currentColor" id="path4222"/>
</g>
<g id="posterior-deltoid" class="body-map__muscle">
<path d="m 275.3,163.4 c -4.1,-0.4 -9.2,-1.4 -14.2,-3.7 0,0 0,0 -0.1,0 -2.5,-1.2 -5,-2.7 -7.4,-4.6 -3.9,-3.3 -7.8,-6.3 -11.5,-9.1 -5.9,-4.6 -11.5,-8.9 -16.9,-14.1 2.3,-2.5 6.1,-6.2 11.9,-8.3 20.5,11.4 29.9,26.5 37.4,38.7 z" fill="currentColor" id="path4225"/>
<path d="m 148.4,131.7 c -5.4,5.2 -11,9.5 -16.9,14.1 -3.7,2.9 -7.5,5.8 -11.5,9.1 -2.3,2 -4.9,3.5 -7.4,4.6 -5,2.3 -10.1,3.3 -14.2,3.7 l 0.8,-1.2 c 7.6,-12.2 16.9,-27.3 37.4,-38.7 v 0 c 5.8,2.2 9.5,5.9 11.8,8.4 z" fill="currentColor" id="path4227"/>
</g>
<g id="lower-trapezius" class="body-map__muscle">
<path d="m 203.7,175.2 c -1.3,3.2 -2.5,6.2 -3.5,9 0,0.1 0,0.1 -0.1,0.1 -0.6,1.4 -1.1,2.8 -1.5,4.1 0,0 0,0.1 0,0.1 -0.9,2.6 -1.8,5 -2.5,7.1 -3.9,11.2 -5.8,16.3 -9.2,16.3 -3.4,0 -5.3,-5.1 -9.2,-16.3 -0.7,-2 -1.5,-4.2 -2.4,-6.7 0,0 0,-0.1 -0.1,-0.1 -0.5,-1.6 -1.1,-3.3 -1.9,-5 v 0 c -1,-2.7 -2.1,-5.6 -3.4,-8.7 5,-0.6 10.7,-0.8 16.4,-0.8 6.2,0 12.2,0.3 17.4,0.9 z" fill="currentColor" id="path4230"/>
</g>
<g id="traps-middle">
<path class="body-map__muscle" d="m 223,134.1 c -8.6,16.2 -14.7,29.7 -19.1,40.7 -5.3,-0.6 -11.3,-1 -17.5,-1 -5.8,0 -11.6,0.3 -16.6,0.9 -4.4,-10.9 -10.5,-24.4 -19.1,-40.6 2.1,1.9 4.1,2.5 6.6,2.5 2,0 4.2,-0.4 7.1,-0.9 5.1,-0.9 12,-2.2 22.5,-2.2 10.5,0 17.5,1.3 22.5,2.2 2.8,0.5 5.1,0.9 7.1,0.9 2.4,0 4.4,-0.6 6.5,-2.5 z" fill="currentColor" id="path4233"/>
</g>
<g id="hands" class="body-map__muscle">
<path d="m 28.6,339.6 c -0.3,-1.8 0,-3.4 0.2,-5 0.6,-3.5 1.2,-7.2 -3.6,-13.1 -0.1,-0.1 -1.1,-1.7 0.8,-6.3 -2.5,1.4 -5,2.2 -7.3,2.2 -1.1,0 -2.1,-0.2 -2.9,-0.5 -0.5,-0.2 -1.1,-0.5 -1.6,-0.8 0,0 -0.1,0 -0.1,0 C 14,316.1 14,316 14,316 v 0 c -2.1,-1.6 -3.9,-4.3 -4.8,-7.8 -1.1,1.6 -2.2,3.8 -1.9,13.2 0,2.9 -1.7,8.3 -3.3,13.6 -1.4,4.6 -2.9,9.3 -3.2,12.1 0,2.8 0.9,6.4 1.8,9.9 0.6,2.3 1.2,4.6 1.5,6.7 0.5,3.1 2.6,4.6 5.1,6.5 1.7,1.2 3.6,2.6 5.4,4.7 0.4,-0.4 1.5,-1.7 1.6,-3.5 0,-0.3 0,-0.6 -0.1,-0.9 0,0 0,0 0,-0.1 0,-0.1 0,-0.1 -0.1,-0.2 l 0.5,-0.2 c 0.6,-0.4 1.8,-1.6 2.2,-3.2 0.2,-1.2 -0.1,-2.5 -0.9,-3.7 -0.3,-0.4 -0.5,-0.8 -0.7,-1.1 -1.9,-2.7 -2.2,-3.1 -0.9,-7.9 0.4,-1.7 0.6,-3.2 0.7,-4.7 0.1,-1.6 0.3,-3.1 0.9,-4.6 l 0.3,-0.8 c 0,0 0.1,0 0.1,-0.1 1,-0.6 2.1,-1.4 3.4,-2.5 0.1,-0.1 0.2,-0.1 0.3,0 0.1,0 0.1,0.1 0.1,0.2 0,0.1 -0.2,10.4 3.6,12.4 1.3,0.7 2.9,0.4 4.8,-0.9 0.1,-0.8 0.2,-3.9 -1.8,-13.5 z" fill="currentColor" id="path4236"/>
<path d="m 369.7,334.8 c -1.6,-5.3 -3.3,-10.7 -3.3,-13.6 0.2,-9.4 -0.9,-11.6 -1.9,-13.2 -1,3.5 -2.7,6.2 -4.9,7.8 0,0.1 -0.1,0.1 -0.1,0.1 0,0 0,0 -0.1,0 -0.5,0.4 -1,0.6 -1.6,0.9 -0.9,0.3 -1.9,0.5 -3,0.5 -2.2,0 -4.8,-0.8 -7.3,-2.2 1.9,4.5 0.9,6.1 0.8,6.2 -4.8,5.9 -4.1,9.6 -3.6,13.1 0.3,1.7 0.5,3.3 0.2,5 -2,9.6 -1.9,12.8 -1.8,13.3 1.9,1.3 3.5,1.6 4.8,0.9 3.8,-2.1 3.6,-12.3 3.6,-12.4 0,-0.1 0,-0.2 0.1,-0.2 0.1,0 0.2,0 0.3,0 1.4,1.1 2.5,1.9 3.4,2.5 0,0 0,0 0,0 l 0.4,0.9 c 0.6,1.5 0.7,3 0.9,4.6 0.1,1.5 0.3,3 0.7,4.7 1.3,4.8 1,5.2 -0.9,7.9 -0.2,0.3 -0.5,0.7 -0.7,1.1 -0.9,1.3 -1.2,2.5 -0.9,3.7 0.3,1.6 1.6,2.7 2.2,3.2 l 0.5,0.3 c 0,0 0,0.1 0,0.2 0,0 0,0 0,0.1 -0.1,0.3 -0.1,0.6 -0.1,0.9 0,1.8 1.1,3 1.6,3.5 1.8,-2.1 3.7,-3.5 5.4,-4.7 2.6,-1.9 4.6,-3.4 5.1,-6.5 0.4,-2.1 1,-4.5 1.5,-6.7 0.9,-3.5 1.8,-7.1 1.8,-9.9 -0.2,-2.7 -1.6,-7.4 -3.1,-12 z" fill="currentColor" id="path4238"/>
</g>
<g id="g4383">
<g id="g4279">
<path class="st1" d="M 14.7,315.7 C 29.2,279.5 52.9,247.9 69,222" stroke="#000000" stroke-width="2" id="path4241"/>
<path class="st1" d="m 98.3,163.6 c 7.7,-12.4 17.1,-28.5 38.6,-40.4" stroke="#000000" stroke-width="2" id="path4243"/>
<path class="st1" d="m 53.2,221.2 c 1,-1.1 1.9,-2.2 2.7,-3.1 0.3,-0.3 0.5,-0.6 0.8,-0.9 5,-6.2 6.3,-9 12.1,-17.7 14,-21 19.9,-2.3 40.6,-38.1" stroke="#000000" stroke-width="2" id="path4245"/>
<path class="st1" d="M 90.8,226.6 C 82.2,197.7 88.1,193 103,171.4" stroke="#000000" stroke-width="2" id="path4247"/>
<path class="st1" d="m 170,174.9 c 4.9,-0.6 10.7,-0.9 16.9,-0.9 6.2,0 12.5,0.4 17.6,1" stroke="#000000" stroke-width="2" id="path4249"/>
<path class="st1" d="m 160.8,291 c 12.2,27.9 -22.6,19.8 -29.8,51 v 0" stroke="#000000" stroke-width="2" id="path4251"/>
<path class="st1" d="m 128.3,487.4 c 9.6,-6.2 19.1,-66.5 21.4,-119.5" stroke="#000000" stroke-width="2" id="path4253"/>
<path class="st1" d="m 147.2,403.6 c -3.3,53.4 -7.2,80.5 -0.9,90.5" stroke="#000000" stroke-width="2" id="path4255"/>
<path class="st1" d="m 125.8,524.5 c 9.2,11 2.5,46 -3,55.4" stroke="#000000" stroke-width="2" id="path4257"/>
<path class="st1" d="m 134.9,527.3 c -6.7,2.8 -4.1,37.5 -2.3,50.7" stroke="#000000" stroke-width="2" id="path4259"/>
<path class="st1" d="M 359.8,315.7 C 345.4,279.4 321.7,247.9 305.5,222" stroke="#000000" stroke-width="2" id="path4261"/>
<path class="st1" d="m 276.2,163.6 c -7.7,-12.4 -17.1,-28.5 -38.6,-40.4" stroke="#000000" stroke-width="2" id="path4263"/>
<path class="st1" d="m 321.4,221.2 c -1,-1.1 -1.9,-2.2 -2.7,-3.1 -0.3,-0.3 -0.5,-0.6 -0.8,-1 -5.1,-6.2 -6.4,-9 -12.1,-17.6 -14,-21 -19.9,-2.3 -40.6,-38.1" stroke="#000000" stroke-width="2" id="path4265"/>
<path class="st1" d="m 283.8,226.6 c 8.6,-28.9 2.7,-33.6 -12.2,-55.2" stroke="#000000" stroke-width="2" id="path4267"/>
<path class="st1" d="m 213.8,291 c -12.2,27.9 22.6,19.8 29.8,51 v 0" stroke="#000000" stroke-width="2" id="path4269"/>
<path class="st1" d="m 246.3,487.4 c -9.6,-6.2 -19.1,-66.5 -21.4,-119.5" stroke="#000000" stroke-width="2" id="path4271"/>
<path class="st1" d="m 227.4,403.6 c 3.3,53.4 7.2,80.5 0.9,90.5" stroke="#000000" stroke-width="2" id="path4273"/>
<path class="st1" d="m 248.8,524.5 c -9.2,11 -2.5,46 3,55.4" stroke="#000000" stroke-width="2" id="path4275"/>
<path class="st1" d="m 239.6,527.3 c 6.7,2.8 4.1,37.5 2.3,50.7" stroke="#000000" stroke-width="2" id="path4277"/>
</g>
<g id="g4381">
<path class="st1" d="m 151.8,536.7 c -0.5,-11.4 -10.1,-14.4 -16.8,-9.4 -8,6 -20.5,-22.7 -24.7,-7" stroke="#000000" stroke-width="2" id="path4281"/>
<path class="st1" d="m 9.8,307.5 c 1.2,4.6 3.7,8 6.6,9.1 2.8,1.1 6.8,0.4 10.7,-2" stroke="#000000" stroke-width="2" id="path4283"/>
<path class="st1" d="m 58.2,211.7 c -6.8,20.1 6.1,7.3 11,10.3 4.9,3 -4.7,28.7 19.8,6.6" stroke="#000000" stroke-width="2" id="path4285"/>
<path class="st1" d="m 126.9,121.8 c 13.3,-0.4 20.1,7.6 23.1,11 7.1,7.9 11.8,0.5 37.2,0.5" stroke="#000000" stroke-width="2" id="path4287"/>
<path class="st1" d="m 150.1,132.7 c 29.8,55.2 29.4,79.5 37.2,79.5" stroke="#000000" stroke-width="2" id="path4289"/>
<path class="st1" d="m 83,168.1 c 0,0 4.5,-3.8 9.1,-4.1 4.6,-0.3 18.2,-0.2 28.5,-8.9 10.3,-8.7 19.7,-14.9 28.6,-23.4" stroke="#000000" stroke-width="2" id="path4291"/>
<path class="st1" d="m 173.6,183.9 c 9.1,22.6 4.9,36.1 -11.6,67.5 -9,17.1 4.2,36.1 -11.3,42.3 -9.9,3.9 -24.4,13.7 -25.4,23.4" stroke="#000000" stroke-width="2" id="path4293"/>
<path class="st1" d="m 113.2,194.7 c 4.4,-7.1 -7.4,-30.1 0,-34.8" stroke="#000000" stroke-width="2" id="path4295"/>
<path class="st1" d="m 187.3,352.4 c 0,20.5 -13.8,18.2 -28.2,17.3 -15.4,-0.9 -35.9,-11.1 -24.7,-46 5,-15.7 4.8,-26.9 20.3,-31.5 10.9,-3.3 32.7,-2.6 32.7,25.6" stroke="#000000" stroke-width="2" id="path4297"/>
<path class="st1" d="m 115.1,454.2 c 0,0 7.6,55.2 20.2,23.4 12.7,-31.8 -0.7,18.4 15.7,18.4 7.4,0 12,-11.1 16.3,-40.5" stroke="#000000" stroke-width="2" id="path4299"/>
<path class="st1" d="m 160.8,369.8 c 4.6,0.5 11.7,-0.5 11.2,6.4 -1.7,21.9 11.7,14.3 4.7,44.6" stroke="#000000" stroke-width="2" id="path4301"/>
<path class="st1" d="m 104.2,554 c 1,18.3 3.3,31.5 10.9,31.9 7.9,0.5 11.8,-18.2 15,-18 3.9,0.3 -0.1,17.9 8.8,19.7 2.7,0.6 8.4,0.9 13.6,-12.7" stroke="#000000" stroke-width="2" id="path4303"/>
<path class="st1" d="m 222.8,536.7 c 0.5,-11.4 10.1,-14.4 16.8,-9.4 8,6 20.5,-22.7 24.7,-7" stroke="#000000" stroke-width="2" id="path4305"/>
<path class="st1" d="m 364.8,307.5 c -1.2,4.6 -3.7,8 -6.6,9.1 -2.8,1.1 -6.8,0.4 -10.7,-2" stroke="#000000" stroke-width="2" id="path4307"/>
<path class="st1" d="m 316.4,211.7 c 6.8,20.1 -6.1,7.3 -11,10.3 -5,3.1 4.7,28.7 -19.8,6.6" stroke="#000000" stroke-width="2" id="path4309"/>
<path class="st1" d="m 221.5,110.3 c -12.4,-3.4 -25.7,-2.3 -31.4,-2.1 -1.9,0.1 -3.7,0.1 -5.6,0 -5.7,-0.2 -19,-1.3 -31.4,2.1" stroke="#000000" stroke-width="2" id="path4311"/>
<path class="st1" d="m 247.6,121.8 c -13.3,-0.4 -20.1,7.6 -23.1,11 -7.1,7.9 -11.8,0.5 -37.2,0.5" stroke="#000000" stroke-width="2" id="path4313"/>
<path class="st1" d="m 224.5,132.7 c -29.8,55.2 -29.4,79.5 -37.2,79.5" stroke="#000000" stroke-width="2" id="path4315"/>
<path class="st1" d="m 291.5,168.1 c 0,0 -4.5,-3.8 -9.1,-4.1 -4.6,-0.3 -18.2,-0.2 -28.5,-8.9 -10.3,-8.7 -19.7,-14.9 -28.6,-23.4" stroke="#000000" stroke-width="2" id="path4317"/>
<path class="st1" d="m 201,183.9 c -9.1,22.6 -4.9,36.1 11.6,67.5 9,17.1 -4.2,36.1 11.3,42.3 9.9,3.9 24.4,13.7 25.4,23.4" stroke="#000000" stroke-width="2" id="path4319"/>
<path class="st1" d="m 261.4,194.7 c -4.4,-7.1 7.4,-30.1 0,-34.8" stroke="#000000" stroke-width="2" id="path4321"/>
<path class="st1" d="m 187.3,352.4 c 0,20.5 13.8,18.2 28.2,17.3 15.4,-0.9 35.9,-11.1 24.7,-46 -5,-15.7 -4.8,-26.9 -20.3,-31.5 -10.9,-3.3 -32.7,-2.6 -32.7,25.6" stroke="#000000" stroke-width="2" id="path4323"/>
<path class="st1" d="m 259.5,454.2 c 0,0 -7.6,55.2 -20.2,23.4 -12.6,-31.8 0.7,18.4 -15.7,18.4 -7.4,0 -12,-11.1 -16.3,-40.5" stroke="#000000" stroke-width="2" id="path4325"/>
<path class="st1" d="m 213.8,369.8 c -4.6,0.5 -11.7,-0.5 -11.2,6.4 1.7,21.9 -11.7,14.3 -4.7,44.6" stroke="#000000" stroke-width="2" id="path4327"/>
<path class="st1" d="m 270.4,554 c -1,18.3 -3.3,31.5 -10.9,31.9 -7.9,0.5 -11.8,-18.2 -15,-18 -3.9,0.3 0.1,17.9 -8.8,19.7 -2.7,0.6 -8.4,0.9 -13.6,-12.7" stroke="#000000" stroke-width="2" id="path4329"/>
<line class="st1" x1="187.3" y1="317.79999" x2="187.3" y2="352.39999" stroke="#000000" stroke-width="2" id="line4331"/>
<path class="st1" d="m 158.2,80.1 c -1.4,-1.8 -2.8,-5.3 -3.6,-11.5 -0.7,-5.5 0,-8 1,-9" stroke="#000000" stroke-width="2" id="path4333"/>
<path class="st1" d="m 187.3,355.3 c -3,21.4 -1.3,26.7 -7.4,52.9 -5.6,24 -12.1,38.8 -15.8,69.8 -3.7,31 -14.3,24.8 -14.6,38.4 7.6,64 3.9,53.6 -2.4,71.7 -6.3,18.1 -12.1,41.9 -13.3,52.2 -1.4,10.9 0.9,10.1 -0.3,15.7 -1.1,5.5 -1,13.8 -0.4,18.8 0.6,5 0.2,14.6 -11.9,14.6 -12.1,0 -17.3,-7.6 -17.3,-7.6 -5.1,-1.5 -10.7,-3.4 -14.3,-4 -9.3,-2.6 -2.9,-8.1 -2.9,-8.1 2.4,-3.3 5.8,-3 5.8,-3 2.1,-2.9 4.6,-2.6 4.6,-2.6 5.2,-3.3 11.1,-11.3 11.1,-11.3 0.9,-5.1 1.9,-9 2.5,-15.9 0.6,-6.8 -2.5,-32 -5.9,-69.2 -3.4,-37.2 9.9,-50.7 10.2,-67.6 0.3,-16.9 4.2,-27.3 2.6,-35.1 -13.5,-51.6 1,-120.7 5.6,-134.1 4.6,-13.4 0.3,-8.9 3.3,-21.6 3.1,-12.7 5.3,-37.5 5.2,-45.2 -0.1,-7.7 0.6,-24.8 -6.6,-36.3 -7.2,-11.5 -11.8,-33.2 -11.8,-33.2 -4.4,7 -16.4,25.9 -21.2,30.8 -4.8,4.9 -6.3,7 -15.8,20.1 -9.5,13.1 -15.5,29.3 -28.4,42.4 C 21.5,315 26,321.3 26,321.3 c 7.1,8.8 2.5,12.8 3.4,18.3 2.3,11 1.8,13.5 1.8,13.5 -9.3,6.5 -8.9,-11.6 -8.9,-11.6 -9,7.3 -8.3,2.3 -9.1,6.7 -0.9,9 -3.6,10.5 -2.2,12.1 1.4,1.6 3.3,5.8 3.3,5.8 5.6,5.2 0.9,9.1 0.9,9.1 C 10.5,369.7 5.3,369 4.4,363.7 3.5,358.4 1,351.5 1,346.9 c 0.6,-6 6.4,-20.3 6.5,-25.6 -0.3,-13.2 2,-12.4 3.2,-15.3 1.2,-3 7.2,-23.5 15.2,-44.3 8,-20.8 22.1,-35.5 27.4,-40.4 5.3,-4.9 4.2,-10 6.6,-14.3 2.5,-4.3 6,-12.2 6,-12.2 4.5,-15.6 17.1,-26.6 17.1,-26.6 6.9,-43.4 43.9,-46.4 43.9,-46.4" stroke="#000000" stroke-width="2" id="path4335"/>
<path class="st1" d="m 16.9,370.2 c 0,0 4.7,-3 1.6,-7.5 -2.6,-3.8 -3,-3.5 -1.6,-8.8 1.1,-4.1 0.4,-7.1 1.9,-10" stroke="#000000" stroke-width="2" id="path4337"/>
<path class="st1" d="m 216.1,80.8 c 1.6,-1.6 2.9,-5.1 3.8,-12.3 0.9,-7.2 0,-9.3 -1.6,-9.5" stroke="#000000" stroke-width="2" id="path4339"/>
<path class="st1" d="m 187.3,355.3 c 3,21.4 1.3,26.7 7.4,52.9 5.6,24 12.1,38.8 15.8,69.8 3.7,31 14.3,24.8 14.6,38.4 -7.6,64 -3.9,53.6 2.4,71.7 6.3,18.1 12.1,41.8 13.4,52.1 1.4,10.9 -0.9,10.1 0.3,15.7 1.1,5.5 1,13.8 0.4,18.8 -0.6,5 -0.2,14.6 11.9,14.6 12.1,0 17.3,-7.6 17.3,-7.6 5.1,-1.5 10.7,-3.4 14.3,-4 9.3,-2.6 2.9,-8.1 2.9,-8.1 -2.4,-3.3 -5.8,-3 -5.8,-3 -2.1,-2.9 -4.6,-2.6 -4.6,-2.6 -5.2,-3.3 -11.1,-11.3 -11.1,-11.3 -0.9,-5.1 -1.9,-9 -2.5,-15.9 -0.6,-6.8 2.5,-32 5.9,-69.2 3.4,-37.2 -9.9,-50.7 -10.2,-67.6 -0.3,-16.9 -4.2,-27.3 -2.6,-35.1 13.5,-51.6 -1,-120.7 -5.6,-134.1 -4.6,-13.4 -0.3,-8.9 -3.3,-21.6 -3.1,-12.7 -5.3,-37.5 -5.2,-45.2 0.1,-7.7 -0.6,-24.8 6.6,-36.3 7.2,-11.5 11.8,-33.2 11.8,-33.2 4.4,7 16.4,25.9 21.2,30.8 4.8,4.9 6.3,7 15.8,20.1 9.5,13.1 15.5,29.3 28.4,42.4 26.4,27.1 21.9,33.4 21.9,33.4 -7,8.8 -2.5,12.8 -3.4,18.3 -2.3,11 -1.8,13.5 -1.8,13.5 9.3,6.5 8.9,-11.6 8.9,-11.6 9,7.3 8.3,2.3 9.1,6.7 0.9,9 3.6,10.5 2.2,12.1 -1.4,1.6 -3.3,5.8 -3.3,5.8 -5.6,5.2 -0.9,9.1 -0.9,9.1 4.7,-5.5 9.9,-6.2 10.8,-11.5 0.9,-5.3 3.4,-12 3.4,-16.7 -0.6,-6 -6.4,-20.3 -6.5,-25.6 0.4,-13.2 -2,-12.4 -3.2,-15.3 -1.2,-3 -7.2,-23.5 -15.2,-44.3 -8,-20.8 -22.1,-35.5 -27.4,-40.4 -5.3,-4.9 -4.2,-10 -6.6,-14.3 -2.5,-4.3 -6,-12.2 -6,-12.2 -4.5,-15.6 -17.1,-26.6 -17.1,-26.6 -6.9,-43.4 -43.9,-46.4 -43.9,-46.4" stroke="#000000" stroke-width="2" id="path4341"/>
<path class="st1" d="m 357.7,370.2 c 0,0 -4.7,-3 -1.6,-7.5 2.6,-3.8 3,-3.5 1.6,-8.8 -1.1,-4.1 -0.4,-7.1 -1.9,-10" stroke="#000000" stroke-width="2" id="path4343"/>
<path class="st1" d="m 162.9,94 c 0,0 -8.5,-10.3 -7.7,-58.7 -0.1,-26.3 4.3,-21.8 10.5,-26.7 6.2,-4.9 13.7,-11.1 26.3,-5.1 7.2,2 7.2,-1.5 13.9,2.1 6.8,3.6 12,5.1 12.6,23.4 0.6,18.3 0.1,57.5 -7,65 -3.8,3.7 -27.9,11.1 -48.6,0 z" stroke="#000000" stroke-width="2" id="path4345"/>
<path class="st1" d="m 166.6,81.3 c 0,0 0.6,13.2 6.6,16" stroke="#000000" stroke-width="2" id="path4347"/>
<path class="st1" d="m 162.1,74.6 c 0,0 0.8,19 7.2,21.5" stroke="#000000" stroke-width="2" id="path4349"/>
<path class="st1" d="m 194.3,98.8 c 0,0 11,-1.5 11.3,-10.9" stroke="#000000" stroke-width="2" id="path4351"/>
<path class="st1" d="m 202.6,97 c 0.3,-0.1 7.3,-0.4 7.9,-15.7" stroke="#000000" stroke-width="2" id="path4353"/>
<path class="st1" d="m 162.1,23.8 c 0,0 -1.8,-11.2 9,-18" stroke="#000000" stroke-width="2" id="path4355"/>
<path class="st1" d="m 169.2,14.3 c -0.1,-0.7 3.6,-7.1 13.9,-9.7" stroke="#000000" stroke-width="2" id="path4357"/>
<path class="st1" d="m 163.8,26.7 c 0,0 10.2,-21.1 31.8,-22" stroke="#000000" stroke-width="2" id="path4359"/>
<path class="st1" d="m 169.9,24.3 c 0,0 6.6,-9.6 18.7,-8.6" stroke="#000000" stroke-width="2" id="path4361"/>
<path class="st1" d="m 181.2,14.3 c 0,0 10.6,-7.4 26.4,-1" stroke="#000000" stroke-width="2" id="path4363"/>
<path class="st1" d="m 202.6,9.1 c 0,0 8.4,-1.9 12.9,5.7" stroke="#000000" stroke-width="2" id="path4365"/>
<path class="st1" d="m 183.1,20.6 c 0,0 16,-5.4 27.5,2.5" stroke="#000000" stroke-width="2" id="path4367"/>
<path class="st1" d="m 171.1,28.8 c 0,0 3.1,-2.5 7.2,-3.3" stroke="#000000" stroke-width="2" id="path4369"/>
<path class="st1" d="m 184.6,25.5 c 0,0 12.6,-1 22,2.5" stroke="#000000" stroke-width="2" id="path4371"/>
<path class="st1" d="m 177.3,33 c 0,0 0.1,-2.1 3.7,-2.4" stroke="#000000" stroke-width="2" id="path4373"/>
<g id="g4379">
<path class="st1" d="m 164.2,95.1 c 0,0 -0.2,3 -0.6,7.4 0,0 -5.3,5.2 -8.2,6.6 -2.9,1.5 -14.5,6.2 -17.3,7.4 -2.8,1.2 -7.4,4.4 -8.3,4.8" stroke="#000000" stroke-width="2" id="path4375"/>
<path class="st1" d="m 210.4,95.1 c 0,0 0.2,3 0.6,7.4 0,0 5.3,5.2 8.2,6.6 2.9,1.5 14.5,6.2 17.3,7.4 2.8,1.2 7.4,4.4 8.3,4.8" stroke="#000000" stroke-width="2" id="path4377"/>
</g>
</g>
</g>
</g>
</g>
</svg>