<svg height="100%" viewBox="0 0 657 1200" fill="none" version="1.1" id="svg3157">
<defs id="defs3161"/>
<g id="Layer_1-2" data-name="Layer 1-2" transform="matrix(1.7322726,0,0,1.7778572,0.15181413,-0.12997654)">
<g id="g2986">
<g id="soleus" class="body-map__muscle">
<path d="m 248.71,616.7 c -4,-0.7 -7.5,-2.8 -9.6,-5.8 v 0 c 0.4,-8.5 -0.8,-20.2 -10.5,-51.3 -0.6,-2 -1.4,-3.2 -2.3,-4.4 -2.4,-3.4 -4.9,-6.9 -1.5,-32.3 2.2,-19.2 2,-19.5 -0.1,-23.1 -0.2,-0.4 -0.5,-0.9 -0.8,-1.4 3.5,5 7.8,8.3 12.1,9.5 0.4,2.9 9.5,67.6 12.7,108.8 z" fill="currentColor" id="path2890"/>
<path d="m 152.91,555.2 c -0.8,1.2 -1.7,2.3 -2.3,4.4 -9.7,31 -10.9,42.7 -10.5,51.3 v 0 c -2,3 -5.5,5.1 -9.5,5.8 3.1,-41.2 12.2,-105.9 12.6,-108.7 4.4,-1.2 8.6,-4.5 12.2,-9.5 -0.3,0.5 -0.6,1 -0.8,1.4 -2.1,3.5 -2.3,3.8 -0.1,23.1 3.4,25.3 0.8,28.8 -1.6,32.2 z" fill="currentColor" id="path2892"/>
</g>
<g id="tibialis" class="body-map__muscle">
<path d="m 256.11,616.5 c -2.3,0.6 -4.8,0.7 -7.2,0.3 -3.1,-40.8 -12.1,-104.7 -12.6,-108.7 1.1,0.3 2.1,0.4 3.2,0.4 h 0.2 c 4.5,-0.1 8.3,-2.6 10.8,-7 0.3,-0.5 0.5,-0.9 0.7,-1.3 l 0.1,0.9 c 3.2,46.2 4.3,61.7 4.8,115.4 z" fill="currentColor" id="path2895"/>
<path d="m 142.91,508.1 c -0.6,4 -9.5,67.8 -12.6,108.7 -2.4,0.4 -4.9,0.3 -7.2,-0.3 0.5,-53.6 1.6,-69.2 4.9,-115.4 l 0.1,-0.9 c 0.2,0.4 0.5,0.9 0.7,1.3 2.5,4.5 6.3,6.9 10.8,7 h 0.2 c 1,0 2,-0.1 3.1,-0.4 z" fill="currentColor" id="path2897"/>
</g>
<g id="soleus" class="body-map__muscle">
<path d="m 264.61,570.7 c -0.4,4.5 -1,9.1 -1.5,13.6 -1.4,11.6 -2.7,22.6 -1.4,29.6 -1.6,1.1 -3.4,2 -5.3,2.5 -0.5,-53.6 -1.6,-69.2 -4.9,-115.3 l -0.1,-1.2 v 0 c 2.3,-3.9 4,-5.5 7.5,-6.4 0.1,0.6 0.5,1.5 0.9,2.8 3.3,9.2 12,33.6 4.8,74.4 z" fill="currentColor" id="path2900"/>
<path d="m 127.81,499.8 v 0 l -0.1,1.2 c -3.3,46.2 -4.4,61.8 -4.9,115.3 -1.9,-0.5 -3.7,-1.3 -5.3,-2.5 1.3,-7 0,-18 -1.4,-29.6 -0.5,-4.5 -1.1,-9.1 -1.5,-13.6 -7.2,-40.8 1.5,-65.3 4.8,-74.5 0.4,-1.2 0.8,-2.2 0.9,-2.8 3.5,1 5.2,2.7 7.5,6.5 z" fill="currentColor" id="path2902"/>
</g>
<g id="quadriceps" class="body-map__muscle">
<path d="m 260.61,440.6 c 0,0 -0.1,0.1 0,0 v 0.1 c -0.5,2.1 -0.9,4.4 -1.3,6.5 -1.8,9 -3.4,17.6 -8,19.8 -1.6,0.8 -3.6,0.8 -5.9,-0.1 -1.5,-0.6 -1.6,-0.6 0,0 2.3,0.9 0,0 0,0 -6,-2.4 -8.9,-7.6 -9.4,-16.8 -0.5,-8.6 1.1,-19.8 3.1,-34 4.1,-28.8 9.6,-68.1 1.8,-115.9 v 0 c 1.9,-2.9 4.1,-5.1 6.7,-6.6 1.5,12 3.4,24.8 4.6,29.3 0.1,0.3 0.2,0.7 0.3,1.3 5.3,20.3 15.6,68.5 8.1,116.4 z" fill="currentColor" id="path2905"/>
<path d="m 143.31,450 c -0.5,9.2 -3.4,14.4 -9.4,16.8 v 0 c -2.3,0.9 -4.3,1 -5.9,0.1 -4.5,-2.2 -6.2,-10.8 -7.9,-19.8 -0.4,-2.1 -0.9,-4.4 -1.3,-6.6 v 0 c -5.5,-34.5 -2.6,-75.9 8.2,-116.6 0.1,-0.5 0.2,-1 0.3,-1.3 1.2,-4.7 3.2,-18.5 4.6,-29.3 2.6,1.5 4.8,3.8 6.7,6.6 v 0 c -7.9,47.8 -2.3,87.2 1.8,115.9 1.8,14.5 3.4,25.7 2.9,34.2 z" fill="currentColor" id="path2907"/>
</g>
<g id="quadriceps" class="body-map__muscle">
<path d="m 163.31,472.1 c -2.8,6.3 -6.9,11.8 -12.7,11.8 h -0.1 c -7.6,-0.1 -9.1,-6.7 -10.3,-11.9 -0.6,-2.8 -1.2,-5.2 -2.6,-5.9 -0.4,-0.2 -0.8,-0.2 -1.3,-0.1 4.6,-2.8 6.9,-7.8 7.3,-15.9 0.5,-8.6 -1.1,-19.8 -3.1,-34 -4.1,-28.7 -9.6,-67.9 -1.8,-115.6 8,12.3 10.5,35.2 12.8,56 1,8.8 1.9,17.1 3.2,24 v 0 0.1 c 5.7,30.1 5.1,51.9 4.7,66.3 -0.4,13.1 -0.6,21.1 3.9,25.2 z" fill="currentColor" id="path2910"/>
<path d="m 242.91,466 c -0.5,-0.1 -0.9,0 -1.3,0.1 -1.4,0.7 -2,3.1 -2.6,5.9 -1.2,5.2 -2.7,11.8 -10.3,11.9 h -0.1 c -5.8,0 -9.9,-5.5 -12.7,-11.8 4.6,-4.2 4.4,-12.2 4,-25.4 -0.4,-14.4 -0.9,-36.1 4.7,-66.3 v -0.1 0 c 1.3,-6.9 2.2,-15.2 3.2,-24 2.3,-20.7 4.8,-43.7 12.8,-56 7.8,47.6 2.2,86.9 -1.8,115.6 -2,14.2 -3.6,25.4 -3.1,34 0.4,8.2 2.7,13.3 7.2,16.1 z" fill="currentColor" id="path2912"/>
</g>
<g id="quadriceps" class="body-map__muscle">
<path d="m 219.61,446.8 c 0.4,13.1 0.6,21 -3.9,25.1 -3.5,-8 -4.8,-17.2 -4.8,-17.4 v 0 c -0.4,-2.7 -0.8,-5.5 -1.3,-8.2 v 0 c -0.1,-0.2 -0.1,-0.5 -0.1,-0.7 v -0.2 c -0.2,-1.3 -0.5,-2.5 -0.7,-3.8 v -0.3 c -3.2,-17.9 -1.5,-20 2.1,-24.4 3.2,-3.9 7.9,-9.6 12.2,-29 -4.3,26.4 -3.8,45.7 -3.5,58.9 z" id="path2915" fill="currentColor"/>
<path d="m 170.61,441.3 v 0 0.3 c -0.3,1.3 -0.6,2.7 -0.8,4.2 v 0.1 c 0,0.1 -0.1,0.3 -0.1,0.5 v 0 c -0.5,2.9 -0.9,5.5 -1.3,8.2 v 0 0.3 c -0.2,1.5 -1.6,9.8 -4.8,17.1 -4.4,-4.1 -4.2,-12 -3.9,-25.1 0.4,-13.2 0.9,-32.5 -3.4,-58.8 4.3,19.4 9,25.1 12.2,29 3.6,4.3 5.3,6.3 2.1,24.2 z" id="path2917" fill="currentColor"/>
</g>
<g id="inner-thigh" class="body-map__muscle">
<path d="m 189.01,362.7 c -0.6,0.8 -0.7,3.5 -0.8,8.7 0,1.6 -0.1,3.4 -0.1,5.4 -0.8,12.8 -6.5,28.4 -10.2,38.8 -1.2,3.3 -2.2,6.2 -2.9,8.2 -1.3,4.3 -2.4,8.6 -3.4,12.8 2.1,-13.8 0.4,-15.9 -3,-20 -3.6,-4.3 -9,-10.9 -13.7,-36.3 -1.3,-6.9 -2.2,-15.2 -3.2,-24.1 -2.9,-25.9 -6.1,-55.3 -19.9,-63.1 0.1,-0.5 0.1,-0.9 0.2,-1.4 h 0.2 c 7.1,1.5 28.9,8.5 37.1,36.3 7.1,24.3 10.9,34.4 19.7,34.7 z" fill="currentColor" id="path2920"/>
<path d="m 247.41,293.2 c -13.8,7.9 -17.1,37.2 -19.9,63.1 -1,8.8 -1.9,17.2 -3.2,24.1 -4.7,25.4 -10.1,32 -13.7,36.3 -3.4,4.1 -5.1,6.2 -3,20 -1,-4.3 -2.1,-8.6 -3.4,-12.9 -0.6,-2.1 -1.7,-4.9 -2.9,-8.2 -3.8,-10.4 -9.4,-26 -10.2,-38.8 -0.1,-2 -0.1,-3.8 -0.1,-5.4 -0.1,-5.3 -0.2,-8 -0.8,-8.7 8.8,-0.3 12.6,-10.4 19.8,-34.5 8.2,-27.8 30.1,-34.8 37.1,-36.3 h 0.2 c 0,0.4 0.1,0.9 0.1,1.3 z" fill="currentColor" id="path2922"/>
</g>
<g id="forearms" class="body-map__muscle">
<path d="m 362.21,293.8 c -0.6,4.2 -2.9,7.7 -5.8,9.2 -0.2,0.1 -0.5,0.2 -0.7,0.3 -11.5,-26.1 -28.1,-49.7 -44.2,-71.6 2,-2.4 3.1,-5.8 3.3,-10.1 0.2,-7.2 -2.2,-17 -7.3,-29 2.2,4.5 4.8,10.1 7.9,17.3 1.4,3.3 3.2,5.2 6.4,8.6 2.4,2.5 5.6,5.9 10.2,11.4 7.6,9.2 15.4,28.4 21.6,43.8 2.6,6.4 5,12.4 7.1,16.9 0.5,1.1 1,2.1 1.5,3.2 z" fill="currentColor" id="path2925"/>
<path d="m 64.51,221.6 c 0.2,4.3 1.2,7.7 3.3,10.1 -16.1,21.9 -32.8,45.4 -44.2,71.6 -0.2,-0.1 -0.5,-0.2 -0.7,-0.3 -3,-1.5 -5.2,-5 -5.8,-9.2 v 0 c 0.5,-1.1 1.1,-2.1 1.6,-3.2 2.1,-4.5 4.5,-10.5 7.1,-16.9 6.2,-15.4 14,-34.6 21.6,-43.8 4.5,-5.4 7.8,-8.9 10.2,-11.3 3.3,-3.4 5.1,-5.3 6.4,-8.6 2.8,-6.7 5.4,-12.4 7.8,-17.2 -5.1,11.8 -7.6,21.5 -7.3,28.8 z" fill="currentColor" id="path2927"/>
</g>
<g id="forearms" class="body-map__muscle">
<path d="m 355.51,303.3 c -2.5,0.9 -5.6,0.6 -8.7,-0.7 -1.5,-2.9 -3.8,-5.9 -3.9,-5.9 -4.5,-4.8 -8.2,-7.6 -11.8,-10.3 -5,-3.8 -9.7,-7.4 -16.5,-16 -7.5,-9.3 -9.6,-13.9 -11.9,-18.6 -1.4,-2.9 -2.8,-5.9 -5.4,-10.1 -2,-2.9 -6.6,-9.1 -11.3,-15.4 6.3,6.8 12.3,9.3 17,9.3 h 0.6 c 1.6,-0.1 3.1,-0.4 4.3,-1.1 1.3,-0.6 2.5,-1.5 3.4,-2.6 16.1,21.8 32.7,45.4 44.2,71.4 z" fill="currentColor" id="path2930"/>
<path d="m 93.21,226.3 c -4.7,6.2 -9.3,12.5 -11.3,15.4 -2.6,4.2 -4.1,7.2 -5.4,10.1 -2.3,4.8 -4.4,9.3 -11.9,18.6 -6.9,8.6 -11.6,12.2 -16.5,16 -3.5,2.7 -7.2,5.5 -11.8,10.3 -0.6,0.8 -2.5,3.4 -3.8,5.9 -3.1,1.3 -6.2,1.6 -8.7,0.7 11.4,-26 28,-49.6 44.1,-71.4 0.9,1.1 2.1,2 3.4,2.6 1.2,0.6 2.7,1 4.3,1.1 h 0.7 c 4.6,0 10.6,-2.5 16.9,-9.3 z" fill="currentColor" id="path2932"/>
</g>
<g id="biceps" class="body-map__muscle">
<path d="m 307.81,234.3 c -0.9,0.4 -1.9,0.8 -3,0.9 1.6,-0.6 2.6,-1.5 3.1,-2.8 1.2,-3.1 -1.4,-7.4 -2.3,-8.8 -0.2,-0.3 -0.3,-0.4 -0.3,-0.4 v 0 c -3.5,-5.6 -7.2,-11 -10.9,-16.1 -5.1,-7.3 -10,-14.1 -13,-20.4 v 0 -0.1 c -3.3,-6.8 -4.5,-12.9 -2.1,-18.5 1.5,0.2 3.5,0.5 5.7,1.1 h 0.1 c 1.5,0.4 3.1,1 4.8,1.8 1.9,0.9 3.8,1.9 5.5,3.1 v 0 c 0.3,0.3 0.6,0.6 0.9,1 1.6,1.7 4.4,4.7 9.3,13.9 v 0 c 14.9,33 7.8,42.5 2.2,45.3 z" fill="currentColor" id="path2935"/>
<path d="m 97.91,186.5 v 0 l -0.1,0.1 c -3.1,6.3 -7.9,13.1 -13,20.4 -3.6,5.2 -7.4,10.5 -10.9,16.1 0,0 -0.1,0.2 -0.3,0.4 0,0 0,0.1 -0.1,0.1 v 0 c -0.9,1.4 -3.5,5.7 -2.3,8.8 0.5,1.3 1.5,2.2 3.1,2.8 -1.1,-0.2 -2.1,-0.5 -3,-0.9 -5.6,-2.7 -12.7,-12.3 2.2,-45.3 v 0 c 4.9,-9.2 7.7,-12.2 9.3,-13.9 0.3,-0.4 0.7,-0.7 0.9,-1 1.7,-1.2 3.6,-2.2 5.5,-3.1 1.7,-0.8 3.3,-1.3 4.8,-1.8 h 0.1 c 2.2,-0.6 4.2,-1 5.7,-1.1 2.7,5.5 1.4,11.6 -1.9,18.4 z" fill="currentColor" id="path2937"/>
</g>
<g id="biceps" class="body-map__muscle">
<path d="m 307.61,232.4 c -0.5,1.5 -1.9,2.5 -4.1,2.9 -5.2,0.2 -12.2,-2.7 -19.6,-11.7 v 0 c -5.6,-7.4 -10.9,-14.3 -12.1,-15.4 -0.3,-0.3 -0.6,-0.5 -0.9,-0.9 -2.6,-2.4 -6.6,-6 -9,-11.8 0,-0.1 -0.1,-0.1 -0.1,-0.1 0,0 -0.1,0 -0.1,0.1 -0.6,-1.8 -1.1,-3.7 -1.4,-5.5 -0.6,-4 -2.4,-14.8 3.6,-19.7 0.4,-0.3 0.7,-0.6 1.1,-0.8 0.5,0.2 9.6,5 16.1,17.2 v 0 c 3.1,6.3 7.9,13.2 13,20.5 3.6,5.2 7.4,10.5 10.9,16.1 0,0 0.1,0.1 0.3,0.4 0.9,1.3 3.4,5.6 2.3,8.7 z" fill="currentColor" id="path2940"/>
<path d="m 119.01,190 c -0.3,1.9 -0.8,3.7 -1.4,5.5 0,-0.1 -0.1,-0.1 -0.1,-0.1 q -0.1,0 -0.1,0.1 c -2.3,5.8 -6.3,9.4 -9,11.7 -0.3,0.3 -0.7,0.6 -0.9,0.9 -1.6,1.4 -9,11.3 -12.2,15.5 -7.4,9 -14.3,12 -19.6,11.7 -2.2,-0.5 -3.5,-1.5 -4.1,-2.9 -1.3,-3.4 2.2,-8.4 2.6,-9 v -0.1 0 c 3.4,-5.6 7.2,-10.9 10.8,-16.1 5.2,-7.3 9.9,-14.1 13,-20.5 v 0 c 6.5,-12.2 15.6,-16.9 16.1,-17.2 0.4,0.2 0.8,0.5 1.1,0.8 6.2,4.9 4.4,15.7 3.8,19.7 z" fill="currentColor" id="path2942"/>
</g>
<g id="obliques" class="body-map__muscle">
<path d="m 157.51,228.8 c -1.6,8.7 -3.3,18.5 -2,27.6 2.8,19.2 -3.9,28.1 -6.9,31 -3.9,3.7 -10.6,5.4 -16.4,4.2 h -0.2 c 0.8,-6.5 1.4,-12.1 1.8,-16.1 0.2,-2.8 0.6,-5.6 1,-8.6 1.5,-10.8 3,-22 -2.4,-32.7 -11.4,-22 -14.2,-35.5 -14.6,-38.1 0.7,-2 1.2,-4 1.5,-6 0.7,-4.1 2.4,-14.9 -3.7,-19.9 -0.3,-0.3 -0.7,-0.5 -1,-0.7 3.8,1.8 6.6,4.8 9.1,7.8 0.7,0.8 1.4,1.6 2.1,2.4 q 0.1,0.1 0.2,0.2 c 5.7,6.4 12.5,12.2 18.4,17.3 8,6.9 14.3,12.3 14.9,16.1 v 0.1 c 0.1,0.5 0.1,1 0.1,1.5 v 0.2 c -0.1,3.5 -0.9,8.3 -1.9,13.7 z" fill="currentColor" id="path2945"/>
<path d="m 264.71,169.4 c -0.4,0.2 -0.7,0.5 -1,0.7 -6.1,5 -4.4,15.8 -3.7,19.9 0.3,2 0.8,4.1 1.5,6 v 0 c -0.5,2.7 -3.3,16.3 -14.6,38.1 -5.4,10.7 -3.9,21.9 -2.4,32.7 0.4,3 0.8,5.8 1,8.6 0.4,4.2 1,9.9 1.8,16.1 h -0.2 c -5.8,1.2 -12.5,-0.5 -16.4,-4.2 -3,-2.9 -9.8,-11.7 -6.9,-31 1.3,-9.1 -0.4,-18.9 -2,-27.6 -1,-5.4 -1.8,-10.2 -1.8,-13.9 v 0.1 c 0,-0.6 0.1,-1.2 0.1,-1.8 0.6,-3.8 6.9,-9.2 14.8,-16.1 6,-5.1 12.7,-10.9 18.4,-17.3 l 0.2,-0.2 c 0.7,-0.8 1.4,-1.6 2.1,-2.4 2.6,-2.9 5.3,-5.9 9.1,-7.7 z" fill="currentColor" id="path2947"/>
</g>
<g id="abdominals">
<path class="body-map__muscle" d="m 213.21,238.5 h -0.8 c -2,0.1 -3.9,0.1 -5.9,0.1 -6.3,0 -11.8,-0.4 -15,-2.2 -1.1,-0.6 -1.6,-1.7 -1.9,-3.1 -0.2,1.4 -0.8,2.5 -1.9,3.1 -3.2,1.9 -8.8,2.2 -15,2.2 -1.9,0 -3.9,0 -5.9,-0.1 h -0.8 c 0,0 -2.9,-0.1 -6.1,-0.3 0.5,11.4 1.3,26.9 2,38.7 1.1,17.4 7.7,30.9 11.6,37.3 5.5,9.3 11.9,15.6 16,15.6 0,0 0.1,0 0.1,0.1 l 0.1,-0.1 c 4.1,0 10.5,-6.2 16,-15.6 3.8,-6.5 10.5,-20 11.6,-37.3 0.8,-11.8 1.5,-27.4 2,-38.7 -3.2,0.2 -6.1,0.3 -6.1,0.3 z m -41.8,2.6 c 3.2,-0.4 8.4,-1 13.1,-0.9 4.1,0.1 4.9,2.6 5.1,6.3 0.1,-3.7 0.9,-6.2 5.1,-6.3 4.7,-0.1 10,0.6 13.1,0.9 0.1,0 0.1,0.1 0.1,0.1 0,0.1 -0.1,0.1 -0.1,0.1 -3.1,-0.4 -8.4,-1 -13.1,-0.9 -4.5,0.1 -4.8,3.1 -4.8,7.7 0,0.1 -0.1,0.1 -0.1,0.1 q -0.1,0 -0.1,-0.1 l -0.1,0.1 c -0.1,0 -0.1,-0.1 -0.1,-0.1 0,-4.6 -0.3,-7.6 -4.8,-7.7 -4.7,-0.1 -9.9,0.6 -13.1,0.9 q -0.1,0 -0.1,-0.1 c 0,-0.1 -0.2,-0.1 -0.1,-0.1 z m 18.4,80.7 c 0,0.1 -0.1,0.1 -0.1,0.1 v 0 q -0.1,0 -0.1,-0.1 V 284 c 0,-0.1 0.1,-0.1 0.1,-0.1 v 0 q 0.1,0 0.1,0.1 z m 18,-53 h -0.4 c -3.6,0 -11.9,0.8 -14.9,1.5 -2.2,0.5 -2.7,2.6 -2.8,5.1 v 2.6 c 0,0.1 -0.1,0.1 -0.1,0.1 v 0 q -0.1,0 -0.1,-0.1 v -2.6 c -0.1,-2.5 -0.6,-4.6 -2.8,-5.1 -3,-0.7 -11.9,-1.6 -15.2,-1.5 q -0.1,0 -0.1,-0.1 c 0,-0.1 0.1,-0.1 0.1,-0.1 3.4,-0.1 12.1,0.8 15.3,1.5 1.9,0.4 2.6,2 2.9,3.9 0.3,-1.9 1,-3.5 2.9,-3.9 3.1,-0.7 11.8,-1.6 15.3,-1.5 0.1,0 0.1,0.1 0.1,0.1 -0.1,0.1 -0.2,0.1 -0.2,0.1 z m 4.5,-3.5 c -3.2,0.1 -5.4,0.3 -7.3,0.4 -2.4,0.2 -4.4,0.3 -7.3,0.3 h -3.2 c -3.8,-0.3 -4.8,-1.7 -4.9,-8.6 -0.1,7 -1.1,8.3 -4.9,8.6 h -3.2 c -2.9,0 -4.9,-0.1 -7.3,-0.3 -1.9,-0.1 -4.1,-0.3 -7.3,-0.4 -0.1,0 -0.1,-0.1 -0.1,-0.1 0,-0.1 0.1,-0.1 0.1,-0.1 1.6,0.1 2.9,0.1 4.1,0.2 1.2,0.1 2.2,0.1 3.2,0.2 3.2,0.2 5.7,0.4 10.5,0.3 4,-0.3 4.7,-1.9 4.7,-10.7 0,-0.1 0.1,-0.1 0.1,-0.1 0,0 0.1,0 0.1,0.1 l 0.1,-0.1 c 0.1,0 0.1,0.1 0.1,0.1 0,8.8 0.7,10.4 4.7,10.7 4.8,0.1 7.3,0 10.5,-0.3 1.9,-0.1 4.1,-0.3 7.3,-0.4 q 0.1,0 0.1,0.1 0,0.1 -0.1,0.1 z" fill="currentColor" id="path2950"/>
</g>
<g id="abdominals" class="body-map__muscle">
<path d="m 222.31,197.1 c -1.4,-3.2 -5.6,-5.6 -9.8,-7.3 h -0.1 c -0.9,-0.3 -1.8,-0.6 -2.6,-1 h -0.1 c -3,-1.1 -13.2,-4.5 -17.7,-1.4 -1.4,0.9 -2.1,2.5 -2.1,4.5 0,0.1 -0.1,0.1 -0.1,0.1 q -0.1,0 -0.1,-0.1 l -0.1,0.1 c -0.1,0 -0.1,-0.1 -0.1,-0.1 0,-2 -0.7,-3.5 -2.1,-4.5 -4.5,-3.1 -14.7,0.3 -17.7,1.4 v 0 c 0,0 -0.1,0 -0.1,0.1 -0.9,0.4 -1.8,0.7 -2.7,1.1 v 0 c -4.2,1.8 -8.3,4.1 -9.8,7.3 -1,2.2 -0.4,4 0.4,6.7 0.7,2.2 1.6,5.1 2,9.3 v 0.1 c 0.1,0.5 0.1,1 0.1,1.5 v 0.2 c 0,0.3 0,0.6 0.1,0.9 0.1,1.4 0,2.1 0,3 -0.1,1 -0.1,2.4 -0.1,5.6 0,2.3 0.2,7.2 0.5,13.4 3.2,0.3 6.1,0.3 6.1,0.3 h 0.8 c 8.5,0.1 16.6,0.3 20.8,-2.1 1.3,-0.7 1.7,-2.2 1.9,-4.1 -0.1,-0.9 0,-1.9 0,-3 v -0.8 c 0,-1 -0.1,-2 -0.1,-3.1 0,-0.1 0.1,-0.1 0.1,-0.1 0,0 0.1,0 0.1,0.1 l 0.1,-0.1 c 0.1,0 0.1,0.1 0.1,0.1 0,1.1 0,2.1 -0.1,3.1 v 0.8 c 0,1.1 0.1,2.1 0,3 0.1,1.9 0.6,3.4 1.9,4.1 4.2,2.4 12.2,2.2 20.8,2.1 h 0.8 c 0,0 2.9,-0.1 6.1,-0.3 0.3,-6.2 0.4,-11.2 0.5,-13.4 0,-3.2 0,-4.6 -0.1,-5.6 -0.1,-0.9 -0.1,-1.6 0,-3 0,-0.3 0,-0.6 0.1,-0.9 v -0.2 c 0,-0.5 0.1,-1.1 0.1,-1.5 v -0.1 c 0.4,-4.2 1.3,-7.1 2,-9.3 0.6,-2.9 1.1,-4.7 0.2,-6.9 z m -14.5,16.6 c -0.2,-0.1 -0.4,-0.1 -0.7,-0.2 -3,-0.8 -8.1,-2.1 -12.3,-1.4 -4.6,0.8 -4.9,3.7 -4.9,6.9 0,0.1 -0.1,0.1 -0.1,0.1 0,0 -0.1,0 -0.1,-0.1 l -0.1,0.1 c -0.1,0 -0.1,-0.1 -0.1,-0.1 0,-3.2 -0.4,-6.2 -4.9,-6.9 -4.2,-0.7 -9.3,0.6 -12.3,1.4 -0.2,0.1 -0.5,0.1 -0.7,0.2 q -0.1,0 -0.1,-0.1 0,-0.1 0.1,-0.1 c 0.2,-0.1 0.4,-0.1 0.7,-0.2 3.1,-0.8 8.1,-2.1 12.4,-1.4 4.3,0.7 5,3.4 5.1,6.3 0.1,-2.9 0.8,-5.6 5.1,-6.3 4.2,-0.7 9.3,0.6 12.4,1.4 0.2,0.1 0.5,0.1 0.7,0.2 0.1,0 0.1,0.1 0.1,0.1 -0.2,0 -0.3,0.1 -0.3,0.1 z m 6.9,-1.2 v 0 c -8.1,-2.4 -13.6,-3.8 -21.6,-3.6 -2.9,0 -3.5,-3.4 -3.6,-7.7 -0.1,4.2 -0.6,7.7 -3.6,7.7 -8,-0.2 -13.5,1.2 -21.5,3.6 v 0 c 0,0 -0.1,0 -0.1,-0.1 0,-0.1 0,-0.1 0.1,-0.1 8.1,-2.4 13.6,-3.8 21.6,-3.6 3.3,0 3.3,-5.1 3.3,-10.5 0,-0.1 0.1,-0.1 0.1,-0.1 0,0 0.1,0 0.1,0.1 l 0.1,-0.1 c 0.1,0 0.1,0.1 0.1,0.1 0,5.4 0,10.4 3.3,10.5 8,-0.2 13.5,1.3 21.6,3.6 0.1,0 0.1,0.1 0.1,0.1 0,0 0.1,0.1 0,0.1 z" fill="currentColor" id="path2953"/>
</g>
<g id="chest" class="body-map__muscle">
<path d="m 189.41,134.3 v 27.9 c 0,5.8 -2,11.3 -5.6,15.5 -3.9,4.6 -8.7,8.2 -14.2,10.6 h -0.1 c -0.9,0.3 -1.8,0.7 -2.8,1.1 h -0.1 c -14.1,4.8 -30,0.9 -40.6,-10 -0.1,0 -0.1,-0.1 -0.1,-0.1 -0.1,-0.1 -0.2,-0.2 -0.3,-0.4 v 0 c -0.6,-0.6 -1.2,-1.3 -1.8,-2 -4,-4.8 -8.6,-9.5 -17.1,-9.5 h -1.4 c 25.2,-5.2 38.2,-15.9 50.8,-26.2 7.8,-6.4 15.2,-12.5 25.2,-17.2 3.2,1.4 5,3.2 6.1,4.8 1.9,2.8 2,5.4 2,5.5 z" fill="currentColor" id="path2956"/>
<path d="m 274.01,167.5 h -1.3 c -8.5,0 -13.1,4.7 -17.1,9.5 -0.6,0.7 -1.2,1.4 -1.8,2 v 0 c -0.1,0.1 -0.2,0.2 -0.3,0.4 l -0.1,0.1 c -10.6,10.9 -26.6,14.8 -40.6,10 h -0.1 c -0.9,-0.4 -1.9,-0.8 -2.8,-1.1 h -0.1 c -5.5,-2.4 -10.2,-6 -14.2,-10.6 -3.6,-4.2 -5.6,-9.8 -5.6,-15.5 v -27.9 c 0,0 0,-2.7 1.9,-5.5 1.1,-1.6 3,-3.4 6.1,-4.8 10,4.7 17.4,10.8 25.2,17.2 12.6,10.3 25.6,21 50.8,26.2 z" fill="currentColor" id="path2958"/>
</g>
<g id="chest" class="body-map__muscle">
<path d="m 275.21,167.5 c -25.9,-5.1 -39.1,-15.9 -51.9,-26.4 -7.8,-6.4 -15.1,-12.4 -25.1,-17.2 2,-0.8 4.5,-1.5 7.7,-1.8 9,-0.9 14.1,0.7 16.8,1.5 0.1,0 0.3,0.1 0.4,0.1 h 0.1 c 0.1,0 0.3,0.1 0.4,0.1 1.6,0.5 6.5,2.3 10.6,4.9 6.1,3.9 8.6,7.2 12.4,12.2 1.7,2.3 3.6,4.8 6.3,7.9 v 0 c 2.8,3.3 8.7,10.2 16.1,15.2 1.5,1 3.5,1.9 6.1,2.7 0.1,0.4 0.1,0.6 0.1,0.8 z" fill="currentColor" id="path2961"/>
<path d="m 181.01,123.9 c -9.9,4.8 -17.3,10.8 -25.1,17.2 -12.8,10.5 -26,21.3 -51.9,26.4 v -0.6 c 2.6,-0.8 4.6,-1.8 6.1,-2.7 7.5,-5.1 13.3,-11.9 16.1,-15.2 v 0 c 2.7,-3.1 4.6,-5.7 6.3,-7.9 3.8,-5 6.2,-8.3 12.4,-12.2 4.1,-2.6 9,-4.3 10.6,-4.9 0.1,0 0.3,-0.1 0.4,-0.1 h 0.1 c 0.1,0 0.3,-0.1 0.4,-0.1 2.7,-0.8 7.8,-2.3 16.8,-1.5 3.3,0.2 5.8,0.8 7.8,1.6 z" fill="currentColor" id="path2963"/>
</g>
<g id="chest" class="body-map__muscle">
<path d="m 155.61,123.6 c 0,0 -0.1,0 -0.1,0.1 -0.2,0 -0.3,0.1 -0.5,0.1 0,0 -0.1,0 -0.1,0.1 v 0 c -2,0.7 -6.4,2.4 -10.1,4.7 -6.2,3.9 -8.7,7.2 -12.5,12.2 -1.7,2.3 -3.6,4.8 -6.3,7.9 v 0 c -2.8,3.3 -8.6,10.1 -16.1,15.2 -1.4,1 -3.4,1.9 -5.9,2.7 0.4,-12.2 4.9,-34.3 29.8,-46.9 10.4,-0.2 20,3.2 21.8,3.9 z" fill="currentColor" id="path2966"/>
<path d="m 275.11,166.7 c -2.5,-0.8 -4.5,-1.7 -5.9,-2.7 -7.5,-5.1 -13.3,-11.9 -16.1,-15.2 v 0 c -2.6,-3.1 -4.6,-5.7 -6.3,-7.9 -3.8,-5 -6.3,-8.3 -12.5,-12.2 -3.7,-2.3 -8.1,-4 -10.1,-4.7 v 0 l -0.1,-0.1 c -0.2,0 -0.3,-0.1 -0.5,-0.1 q -0.1,0 -0.1,-0.1 c 1.9,-0.7 11.4,-4.1 21.8,-3.8 v 0 c 24.9,12.5 29.4,34.6 29.8,46.8 z" fill="currentColor" id="path2968"/>
</g>
<g id="shoulders" class="body-map__muscle">
<path d="m 133.31,119.8 c -10.9,5.6 -18.9,13.7 -23.9,23.9 -4.2,8.8 -5.4,17.3 -5.6,23 -1.1,0.4 -2.3,0.7 -3.6,1 h -0.1 c -1.5,0.2 -3.6,0.5 -5.8,1.2 h -0.1 c -1.5,0.4 -3.1,1 -4.8,1.8 -1.7,0.8 -3.4,1.7 -5,2.7 0.4,-0.5 0.6,-1.1 0.8,-1.8 3.2,-12.1 5,-16.5 6.2,-19.5 0.6,-1.4 1,-2.5 1.4,-4 3.2,-10.5 11,-23.6 30.1,-26.7 0.4,-0.1 0.7,-0.1 0.8,-0.2 h 0.1 c 0.8,-0.2 2.1,-0.5 3.4,-0.9 h 0.1 c 2.1,-0.2 4,-0.4 6,-0.5 z" fill="currentColor" id="path2971"/>
<path d="m 294.91,173.5 c -1.6,-1 -3.2,-1.9 -5,-2.7 -1.7,-0.8 -3.3,-1.3 -4.9,-1.8 h -0.1 c -2.3,-0.7 -4.3,-1 -5.8,-1.2 h -0.1 c -1.3,-0.3 -2.5,-0.6 -3.6,-1 -0.2,-5.7 -1.3,-14.2 -5.6,-23 -5,-10.3 -13,-18.3 -23.9,-23.9 2,0.1 4,0.3 6,0.7 v 0 c 0.6,0.2 1.2,0.3 1.7,0.4 0.7,0.2 1.4,0.3 1.8,0.4 0.2,0 0.4,0.1 0.8,0.2 19.1,3.1 26.9,16.2 30.1,26.7 0.4,1.5 0.9,2.6 1.5,4 1.2,2.9 3,7.3 6.2,19.4 0.3,0.7 0.5,1.3 0.9,1.8 z" fill="currentColor" id="path2973"/>
</g>
<g id="trapezius" class="body-map__muscle">
<path d="m 166.11,98.3 v 14.5 c 0,6.2 -3.4,8.5 -10.1,10.7 -0.8,-0.3 -11,-4.3 -22.1,-4 h -0.1 c -1.3,0 -2.6,0.1 -4,0.3 1.1,-0.3 2,-0.6 2.4,-0.7 0.3,-0.2 1.1,-0.8 2.2,-1.6 1.8,-1.4 4.4,-3.4 6.2,-4.2 1.1,-0.5 3.6,-1.6 6.5,-2.8 4.2,-1.8 9.1,-3.8 10.8,-4.7 2.9,-1.4 8.1,-6.6 8.2,-6.7 V 99 c 0,-0.1 0,-0.4 0,-0.7 z" fill="currentColor" id="path2976"/>
<path d="m 249.31,119.8 c -1.3,-0.2 -2.7,-0.3 -4,-0.3 -11.2,-0.3 -21.4,3.7 -22.2,4 -6.7,-2.2 -10.1,-4.5 -10.1,-10.7 V 98.3 c 0,0.3 0,0.6 0.1,0.8 v 0.1 c 0.1,0.1 5.3,5.2 8.2,6.7 1.7,0.9 6.5,2.9 10.8,4.7 2.9,1.2 5.4,2.3 6.6,2.8 1.8,0.8 4.3,2.8 6.1,4.2 1.1,0.8 1.9,1.4 2.2,1.6 0.3,0.1 1.2,0.3 2.3,0.6 z" fill="currentColor" id="path2978"/>
</g>
<g id="hands" class="body-map__muscle">
<path d="m 31.31,307.3 c -0.5,-0.7 -0.2,-2.1 1,-4.4 -1.8,0.8 -3.6,1.1 -5.3,1.1 -1.2,0 -2.3,-0.2 -3.4,-0.6 v 0 c -0.3,-0.1 -0.5,-0.2 -0.8,-0.3 -2.9,-1.5 -5.2,-4.9 -5.9,-9 -1.6,3.5 -2.6,6.7 -3.7,10.2 -1.6,5 -3.4,10.7 -7.3,18 l -0.1,0.2 c -1.9,3.8 -2.9,6.6 -3,8.4 0,1.2 -0.1,2.8 -0.5,5.6 -1.1,9.1 -0.9,12.3 -0.8,14.2 v 0.1 c 0.1,1.7 2.6,10.4 2.9,11.4 0.6,0 4.4,0 4.8,-4.2 v 0 -0.1 h 0.3 c 0.5,0 2.2,0.1 3.1,-1 0.7,-0.7 0.9,-1.7 0.7,-3.1 -0.5,-2.9 -0.3,-4.4 -0.1,-6.2 0.1,-1.2 0.3,-2.5 0.2,-4.4 0,-1.9 0.5,-3.1 1.2,-4.3 0.9,-1.9 1.9,-3.9 1.5,-9.1 v -0.4 c 1.3,-1.9 2.9,-2.3 3,-2.3 h 0.1 v 0.1 c 0,0.1 -1,10.5 1.9,13.9 0.6,0.7 1.3,1 2.1,1 v 0 c 4.3,0 4.5,-4.2 4.7,-10 0.1,-1.5 0.1,-3.1 0.3,-4.8 0.6,-5 1.4,-7.6 2.9,-9.4 1.7,-1.9 3.2,-6.5 0.2,-10.6 z" fill="currentColor" id="path2981"/>
<path d="m 377.01,336.5 c -0.3,-2.8 -0.4,-4.4 -0.5,-5.6 -0.1,-1.8 -1.1,-4.6 -3,-8.4 l -0.1,-0.2 c -3.9,-7.4 -5.7,-13 -7.3,-18 -1.1,-3.4 -2.1,-6.7 -3.7,-10.2 -0.7,4.1 -3,7.5 -5.9,9 -0.2,0.1 -0.5,0.2 -0.8,0.3 v 0 c -1,0.4 -2.2,0.6 -3.4,0.6 -1.7,0 -3.5,-0.4 -5.3,-1.1 0.9,1.8 1.5,3.5 0.9,4.4 -3,4.1 -1.5,8.7 0.2,10.7 1.5,1.9 2.3,4.4 3,9.4 0.1,1.7 0.2,3.2 0.3,4.8 0.2,5.8 0.4,10 4.7,10 h 0.1 c 0.8,0 1.5,-0.4 2.1,-1 3,-3.4 1.9,-13.8 1.9,-13.9 v -0.1 h 0.1 c 0.1,0 1.7,0.4 3,2.3 v 0.4 c -0.5,5.2 0.5,7.2 1.5,9.1 0.6,1.2 1.2,2.4 1.2,4.3 0,1.9 0.1,3.2 0.2,4.4 0.2,1.8 0.4,3.3 -0.1,6.2 -0.2,1.4 0,2.4 0.7,3.1 1,1 2.7,1 3.1,1 h 0.2 v 0.1 0 c 0.1,1.2 0.5,2.1 1.1,2.8 1.3,1.4 3.2,1.4 3.7,1.4 0.3,-1 2.8,-9.6 2.9,-11.4 v -0.1 c 0.1,-2 0.3,-5.2 -0.8,-14.3 z" fill="currentColor" id="path2983"/>
</g>
</g>
<g id="g3154">
<g id="g3102">
<g id="g3094">
<line class="cls-2" x1="189.71001" y1="283.39999" x2="189.71001" y2="321.20001" stroke="#000000" stroke-width="2" id="line2988"/>
<line class="cls-2" x1="189.61" y1="283.39999" x2="189.61" y2="321.20001" stroke="#000000" stroke-width="2" id="line2990"/>
<line class="cls-2" x1="189.50999" y1="283.39999" x2="189.50999" y2="321.20001" stroke="#000000" stroke-width="2" id="line2992"/>
<path class="cls-2" d="m 16.81,293.1 v 0 c 0.6,4.3 2.9,7.8 5.9,9.3 2.7,1.4 6.3,1.2 9.8,-0.3" stroke="#000000" stroke-width="2" id="path2994"/>
<path class="cls-2" d="m 83.81,173.3 c 1.6,-1.1 3.4,-2.1 5.6,-3.1 6.5,-2.9 12,-3.1 13.1,-3.1 4.8,-0.1 9.4,-0.3 12.9,2.5 6.1,4.9 4.3,15.7 3.7,19.8 -0.3,2.1 -0.9,4.1 -1.5,6" stroke="#000000" stroke-width="2" id="path2996"/>
<path class="cls-2" d="m 95.41,223.1 c -10.6,12.9 -19.7,12.8 -24,10.7 -7.3,-3.6 -11.4,-15.4 2.2,-45.4 v 0" stroke="#000000" stroke-width="2" id="path2998"/>
<path class="cls-2" d="m 94.21,168.5 v 0" stroke="#000000" stroke-width="2" id="path3000"/>
<path class="cls-2" d="m 100.11,167.3 v 0 c 4.4,-1.1 7.8,-2.4 10,-3.8 7.5,-5.1 13.4,-12 16.1,-15.2 8.5,-10 9.8,-14.5 18.7,-20.2 4.9,-3.1 11.1,-5 11.1,-5 0,0 -14.8,-6.1 -28.8,-3.3 v 0" stroke="#000000" stroke-width="2" id="path3002"/>
<path class="cls-2" d="m 155.71,123.1 c 2.5,-0.7 7.7,-2.6 17.6,-1.7 16.3,1.6 16.1,12.3 16.1,12.3 v 27.9 c 0,5.7 -1.9,11.3 -5.6,15.6 -3.2,3.7 -7.8,7.8 -14.3,10.6 -16,7 -34.8,2.1 -45.9,-11.4 -4.2,-5.1 -8.8,-9.5 -17,-9.5" stroke="#000000" stroke-width="2" id="path3004"/>
<path class="cls-2" d="m 166.31,91.4 v 20.8 c 0,6.6 -4,8.8 -10.3,10.8 -0.3,0.1 -0.6,0.2 -1,0.3" stroke="#000000" stroke-width="2" id="path3006"/>
<path class="cls-2" d="m 189.51,191.1 c 0,-9.3 -14.3,-5.3 -19.9,-3.2 -6.1,2.3 -11.1,4.9 -12.7,8.5 -1.9,4.4 2.1,7.1 2.6,18.7 0.1,3 -0.2,2.6 -0.1,8.7 0.1,6.3 1.3,34 2.5,52.4 1.9,29 19.8,53 27.7,53" stroke="#000000" stroke-width="2" id="path3008"/>
<path class="cls-2" d="m 164.51,211.8 c 8.1,-2.4 13.6,-3.8 21.6,-3.6 3.5,0 3.5,-5.1 3.5,-10.6" stroke="#000000" stroke-width="2" id="path3010"/>
<path class="cls-2" d="m 166.01,237.8 c 9,0.1 17.3,0.4 21.6,-2.1 2.7,-1.5 1.8,-5.9 1.8,-11" stroke="#000000" stroke-width="2" id="path3012"/>
<path class="cls-2" d="m 166.91,264.6 c 8.3,0.3 10,0.9 17.8,0.7 4.1,-0.3 4.8,-2.1 4.8,-10.8" stroke="#000000" stroke-width="2" id="path3014"/>
<path class="cls-2" d="m 171.41,212.9 c 2.8,-0.7 8.5,-2.4 13,-1.6 4.6,0.8 5.1,3.7 5.1,7.1" stroke="#000000" stroke-width="2" id="path3016"/>
<path class="cls-2" d="m 171.41,240.6 c 3.7,-0.4 8.6,-1 13.1,-0.9 4.5,0.1 4.9,3 4.9,7.8" stroke="#000000" stroke-width="2" id="path3018"/>
<line class="cls-2" x1="189.61" y1="283.39999" x2="189.61" y2="321.20001" stroke="#000000" stroke-width="2" id="line3020"/>
<path class="cls-2" d="m 171.41,268.1 c 3.4,-0.1 12.1,0.8 15.2,1.5 3.1,0.7 3,4.5 3,7.8" stroke="#000000" stroke-width="2" id="path3022"/>
<path class="cls-2" d="m 125.41,178.5 c 13.5,15.1 32.9,27.2 33.8,34 1.2,9 -5.9,27.5 -3.6,43.3 2.3,15.8 -1.7,26.1 -7,31.1 -4,3.8 -10.9,5.5 -16.8,4.2" stroke="#000000" stroke-width="2" id="path3024"/>
<path class="cls-2" d="m 131.81,291.1 c 11,2.3 30.1,11.3 37.5,36.5 7.4,25.2 11.3,34.5 20.1,34.5" stroke="#000000" stroke-width="2" id="path3026"/>
<path class="cls-2" d="m 169.71,445.7 c 0.4,-1.8 0.7,-3.4 1,-5 6.3,-35.4 -6.3,-9.1 -15.9,-60.9 -5,-27.2 -4.6,-76.8 -23.1,-87.2" stroke="#000000" stroke-width="2" id="path3028"/>
<path class="cls-2" d="m 118.51,440 c 3.3,15.1 4.3,31.9 16.6,25.8 7.5,-3.7 1.6,17.3 15.4,17.6 13.8,0.2 17.9,-29.5 17.9,-29.5" stroke="#000000" stroke-width="2" id="path3030"/>
<path class="cls-2" d="m 157.01,495 c -0.1,0.2 -0.2,0.3 -0.3,0.5 -8.7,14.6 -22,16 -27.9,5.4 -2.8,-5 -4.5,-7.2 -8.6,-8.1" stroke="#000000" stroke-width="2" id="path3032"/>
<line class="cls-2" x1="189.50999" y1="283.39999" x2="189.50999" y2="321.20001" stroke="#000000" stroke-width="2" id="line3034"/>
<line class="cls-2" x1="189.61" y1="283.39999" x2="189.61" y2="321.20001" stroke="#000000" stroke-width="2" id="line3036"/>
<line class="cls-2" x1="189.71001" y1="283.39999" x2="189.71001" y2="321.20001" stroke="#000000" stroke-width="2" id="line3038"/>
<path class="cls-2" d="m 362.41,293.1 v 0 c -0.6,4.3 -2.9,7.8 -5.9,9.3 -2.7,1.4 -6.3,1.2 -9.8,-0.3" stroke="#000000" stroke-width="2" id="path3040"/>
<path class="cls-2" d="m 295.41,173.3 c -1.6,-1.1 -3.5,-2.1 -5.6,-3.1 -6.5,-2.9 -12,-3.1 -13.1,-3.1 -4.8,-0.1 -9.4,-0.3 -12.9,2.5 -6.1,4.9 -4.3,15.7 -3.7,19.8 0.4,2.1 0.9,4.1 1.5,6" stroke="#000000" stroke-width="2" id="path3042"/>
<path class="cls-2" d="m 283.81,223.1 c 10.6,12.9 19.7,12.8 24,10.7 7.3,-3.6 11.4,-15.4 -2.2,-45.4 v 0" stroke="#000000" stroke-width="2" id="path3044"/>
<path class="cls-2" d="m 285.01,168.5 v 0" stroke="#000000" stroke-width="2" id="path3046"/>
<path class="cls-2" d="m 279.11,167.3 v 0 c -4.4,-1.1 -7.8,-2.4 -10,-3.8 -7.5,-5.1 -13.4,-12 -16.1,-15.2 -8.5,-10 -9.8,-14.5 -18.7,-20.2 -4.9,-3.1 -11.1,-5 -11.1,-5 0,0 14.8,-6.1 28.8,-3.3 v 0" stroke="#000000" stroke-width="2" id="path3048"/>
<path class="cls-2" d="m 223.51,123.1 c -2.5,-0.7 -7.7,-2.6 -17.6,-1.7 -16.3,1.6 -16.1,12.3 -16.1,12.3 v 27.9 c 0,5.7 1.9,11.3 5.6,15.6 3.2,3.7 7.8,7.8 14.3,10.6 16,7 34.8,2.1 45.9,-11.4 4.2,-5.1 8.8,-9.5 17,-9.5" stroke="#000000" stroke-width="2" id="path3050"/>
<path class="cls-2" d="m 212.91,91.4 v 20.8 c 0,6.6 4,8.8 10.3,10.8 0.3,0.1 0.6,0.2 1,0.3" stroke="#000000" stroke-width="2" id="path3052"/>
<path class="cls-2" d="m 189.71,191.1 c 0,-9.3 14.3,-5.3 19.9,-3.2 6.1,2.3 11.1,4.9 12.7,8.5 1.9,4.4 -2.1,7.1 -2.6,18.7 -0.1,3 0.2,2.6 0.1,8.7 -0.1,6.3 -1.3,34 -2.5,52.4 -1.9,29 -19.8,53 -27.7,53" stroke="#000000" stroke-width="2" id="path3054"/>
<path class="cls-2" d="m 214.71,211.8 c -8.1,-2.4 -13.6,-3.8 -21.6,-3.6 -3.5,0 -3.5,-5.1 -3.5,-10.6" stroke="#000000" stroke-width="2" id="path3056"/>
<path class="cls-2" d="m 213.21,237.8 c -9,0.1 -17.3,0.4 -21.6,-2.1 -2.7,-1.5 -1.8,-5.9 -1.8,-11" stroke="#000000" stroke-width="2" id="path3058"/>
<path class="cls-2" d="m 212.31,264.6 c -8.3,0.3 -10,0.9 -17.8,0.7 -4.1,-0.3 -4.8,-2.1 -4.8,-10.8" stroke="#000000" stroke-width="2" id="path3060"/>
<path class="cls-2" d="m 207.81,212.9 c -2.8,-0.7 -8.5,-2.4 -13,-1.6 -4.6,0.8 -5.1,3.7 -5.1,7.1" stroke="#000000" stroke-width="2" id="path3062"/>
<path class="cls-2" d="m 207.81,240.6 c -3.7,-0.4 -8.6,-1 -13.1,-0.9 -4.5,0.1 -4.9,3 -4.9,7.8" stroke="#000000" stroke-width="2" id="path3064"/>
<line class="cls-2" x1="189.61" y1="283.39999" x2="189.61" y2="321.20001" stroke="#000000" stroke-width="2" id="line3066"/>
<path class="cls-2" d="m 207.81,268.1 c -3.4,-0.1 -12.1,0.8 -15.2,1.5 -3.1,0.7 -3,4.5 -3,7.8" stroke="#000000" stroke-width="2" id="path3068"/>
<path class="cls-2" d="m 253.81,178.5 c -13.5,15.1 -32.9,27.2 -33.8,34 -1.2,9 5.9,27.5 3.6,43.3 -2.3,15.8 1.7,26.1 7,31.1 4,3.8 10.9,5.5 16.8,4.2" stroke="#000000" stroke-width="2" id="path3070"/>
<path class="cls-2" d="m 247.31,291.1 c -11,2.3 -30.1,11.3 -37.5,36.5 -7.4,25.2 -11.3,34.5 -20.1,34.5" stroke="#000000" stroke-width="2" id="path3072"/>
<path class="cls-2" d="m 209.51,445.7 c -0.4,-1.8 -0.7,-3.4 -1,-5 -6.3,-35.4 6.3,-9.1 15.9,-60.9 5,-27.2 4.6,-76.8 23.1,-87.2" stroke="#000000" stroke-width="2" id="path3074"/>
<path class="cls-2" d="m 260.71,440 c -3.4,15.1 -4.4,31.9 -16.6,25.8 -7.5,-3.7 -1.6,17.3 -15.4,17.6 -13.8,0.2 -17.9,-29.5 -17.9,-29.5" stroke="#000000" stroke-width="2" id="path3076"/>
<path class="cls-2" d="m 222.21,495 c 0.1,0.2 0.2,0.3 0.3,0.5 8.7,14.6 22,16 27.9,5.4 2.8,-5 4.5,-7.2 8.6,-8.1" stroke="#000000" stroke-width="2" id="path3078"/>
<path class="cls-2" d="m 189.51,362 c -1.2,0 -1,4.7 -1.3,14.3 -1,16.9 -10.5,38.5 -13.1,47 -1.3,4.3 -3,10.2 -4.5,17.4 v 0.2 c -0.3,1.4 -0.6,2.8 -0.8,4.3 -0.5,2.8 -1,5.7 -1.4,8.7 0,0.1 0,0.2 -0.1,0.3 -0.5,3.4 -0.8,6.9 -1.1,10.6 -0.7,9.1 -2.6,15.3 -4.8,20.1" stroke="#000000" stroke-width="2" id="path3080"/>
<path class="cls-2" d="m 162.41,485 c -1.8,4.1 -3.8,7.1 -5.4,9.9 -0.1,0.2 -0.2,0.4 -0.4,0.6 -0.2,0.4 -0.4,0.8 -0.6,1.1 -3.4,6.8 -4.1,2.6 -1.6,25.6 4.7,34 -1.4,28.8 -3.8,36.7 -11.8,37.7 -11,47 -10.1,56.5 0.9,9.6 -1.8,10.8 -1.8,10.8 0,0 -0.8,4.2 -0.3,8.1 2.2,12.7 -0.2,14.4 -4,16.5 -3.8,2.1 -6.5,3.5 -6.4,6.2 0.7,8.2 -8.3,10.7 -8.3,10.7 -6.9,12.1 -14.5,4.3 -14.5,4.3 -3.5,3.1 -6.4,-0.8 -6.4,-0.8 -3.4,0.9 -4.3,-2.7 -4.3,-2.7 -2.5,0.1 -2.5,-2.5 -2.5,-2.5 -2.3,0 -3.9,-2 -2.1,-6.4 2.7,-6.1 8.1,-9.7 12.1,-12.9 4,-3.2 3,-3.4 4.6,-6.2 1.7,-2.8 8.1,-12.5 9,-15.6 0.1,-3.1 0.5,-5.6 1.5,-11.6 1.8,-9.8 -1.4,-27.3 -2.9,-43.2 -8.2,-47 4.7,-72.8 5.8,-77.5 v -0.1 c 0.9,-4.3 0.4,-7 1.1,-11 0.7,-4 2,-3.8 2.2,-19 -2.2,-7.4 -3.8,-15 -5,-22.5 v 0 c -8.9,-56.4 7,-111.9 8.5,-117.9 1.1,-4.4 3.1,-17.3 4.6,-29.5 0.1,-0.5 0.1,-1.1 0.2,-1.6 0.8,-6.1 1.4,-11.9 1.8,-16.2 1.1,-13.2 5.5,-27.7 -1.4,-41.3 -11.4,-22 -14.2,-35.5 -14.7,-38.2 -0.1,-0.3 -0.1,-0.5 -0.1,-0.5 -2.7,6.6 -7.5,10.4 -10,12.7 -1.2,1.1 -6.6,8.1 -12.2,15.5 -5.4,7.2 -11.1,14.8 -13.3,18.1 -7.1,11.4 -5.5,14 -17.3,28.8 -11.9,14.8 -17.5,15 -28.3,26.2 -0.7,0.9 -2.5,3.5 -3.8,5.9 v 0 c -1,1.9 -1.7,3.7 -1.1,4.5 3.1,4.3 1.4,9 -0.2,10.9 -1.5,1.9 -2.3,4.5 -2.9,9.4 -0.7,8.1 0.4,15 -5.2,14.9 -5.6,-0.1 -4.1,-15 -4.1,-15 0,0 -2.2,0.5 -3.6,3.4 -2,6.9 -4.3,6 -5.4,10.4 -1.2,8 -2.3,6 -0.9,14 0.2,1.2 0.2,2.2 0.2,3 -0.5,4.8 -5.1,4.4 -5.1,4.4 0,0 -2.8,-9.6 -2.9,-11.5 -0.1,-1.9 -0.4,-5 0.8,-14.4 1.1,-9.4 -0.7,-5.8 3.6,-14.2 6.6,-12.5 7.1,-19.8 11.2,-28.5 v 0 c 0.5,-1.1 1,-2.1 1.7,-3.3 7.2,-15.5 17.9,-47.8 28.7,-60.7 10.8,-12.9 14.2,-14.2 16.6,-19.9 3.9,-9.3 7.1,-16 9.8,-21 5.8,-11.1 8.7,-13.1 10.3,-14.9 0.6,-0.6 0.9,-1.3 1.3,-2.3 4.7,-17.9 6.3,-18.9 7.6,-23.5 7.7,-25.1 29.2,-26.4 31.1,-26.9 0.8,-0.2 2.1,-0.5 3.5,-0.9 h 0.1 c 2.1,-0.5 4.3,-1.1 4.8,-1.4 0.9,-0.4 5.5,-4.5 8.3,-5.8 2.8,-1.3 14.4,-6 17.3,-7.4 2.9,-1.5 8.2,-6.6 8.2,-6.6 0.1,-1.4 0.2,-4 0.3,-7.1 v -0.1 c 0.2,-6.6 0.2,-15 0.2,-15 -1.6,-3.2 -1.9,-8.7 -1.9,-8.7 -4.1,0.8 -7,-1.1 -7.8,-11.8 -0.8,-10.7 5.5,-8.7 5.5,-8.7" stroke="#000000" stroke-width="2" id="path3082"/>
<path class="cls-2" d="m 9.21,357.4 c 0,0 4.8,0.6 4.1,-4.1 -0.8,-4.8 0.2,-5.9 0.1,-10.5 -0.1,-4.6 3.5,-4.7 2.6,-13.7" stroke="#000000" stroke-width="2" id="path3084"/>
<path class="cls-2" d="m 216.91,47.1 c 0,0 6.3,-2 5.5,8.7 -0.8,10.8 -3.7,12.6 -7.8,11.8 0,0 -0.3,5.5 -1.9,8.7 0,0 0.2,17.7 0.6,22.1 0,0 5.3,5.2 8.2,6.6 2.9,1.5 14.5,6.2 17.3,7.4 2.8,1.2 7.4,5.4 8.3,5.8 0.9,0.4 6.6,1.8 8.4,2.3 1.9,0.5 23.4,1.9 31.1,26.9 1.3,4.6 2.9,5.6 7.6,23.5 1.6,5.2 5.3,0.6 21.3,38.2 2.4,5.7 5.8,7 16.6,19.9 10.8,12.9 21.5,45.3 28.7,60.7 5.7,10.4 5.4,17.8 12.8,31.8 4.3,8.4 2.5,4.8 3.6,14.2 1.1,9.4 0.9,12.5 0.8,14.4 -0.1,1.9 -2.9,11.5 -2.9,11.5 0,0 -6.3,0.6 -4.9,-7.3 1.4,-7.9 0.2,-6 -0.9,-14 -1,-4.3 -3.3,-3.5 -5.4,-10.3 -1.4,-2.8 -3.6,-3.4 -3.6,-3.4 0,0 1.5,14.9 -4.1,15 -5.7,0.1 -4.5,-6.7 -5.3,-14.9 -0.6,-4.8 -1.4,-7.5 -2.9,-9.4 -1.5,-1.9 -3.3,-6.6 -0.2,-10.9 1.2,-1.9 -3.8,-8.9 -5,-10.5 -10.8,-11.3 -16.5,-11.4 -28.3,-26.2 -11.9,-14.8 -10.2,-17.3 -17.3,-28.8 -4.6,-6.6 -23.1,-31.3 -25.5,-33.6 -2.4,-2.2 -7.3,-6.1 -10,-12.7 0,0 -1.9,14 -14.7,38.7 -6.9,13.6 -2.5,28.1 -1.4,41.3 1.1,13.2 4.9,40.4 6.6,47.3 1.7,6.9 22,77.2 3.5,140.4 0.2,15.2 1.4,15 2.2,19 0.8,4 0.2,6.7 1.1,11 0.9,4.3 14.1,30.2 5.8,77.6 -1.5,15.9 -4.7,33.4 -2.9,43.2 1,6 1.4,8.5 1.5,11.6 1,3.2 7.4,12.8 9,15.6 1.7,2.8 0.6,3 4.6,6.2 4,3.2 9.3,6.9 12.1,12.9 1.8,4.4 0.2,6.4 -2.1,6.4 0,0 0,2.6 -2.5,2.5 0,0 -0.9,3.6 -4.3,2.7 0,0 -2.8,4 -6.4,0.8 0,0 -7.6,7.8 -14.5,-4.3 0,0 -8.9,-2.5 -8.3,-10.7 0.1,-2.7 -2.6,-4 -6.4,-6.2 -3.8,-2.2 -6.2,-3.8 -4,-16.5 0.5,-3.9 -0.3,-8.1 -0.3,-8.1 0,0 -2.7,-1.3 -1.8,-10.8 0.9,-9.5 1.6,-18.8 -10.1,-56.5 -2.3,-7.9 -8.4,-2.7 -3.8,-36.7 2.6,-23.1 1.8,-18.9 -1.6,-25.6 -3.4,-6.8 -9.7,-13.4 -11.1,-31.8 -1.4,-18.4 -5.3,-33 -7.9,-41.6 -2.6,-8.5 -12.1,-30.2 -13.1,-47 -0.3,-9.6 -0.1,-14.3 -1.3,-14.3" stroke="#000000" stroke-width="2" id="path3086"/>
<path class="cls-2" d="m 370.01,357.4 c 0,0 -4.8,0.6 -4.1,-4.1 0.8,-4.8 -0.2,-5.9 -0.1,-10.5 0.1,-4.6 -3.5,-4.7 -2.6,-13.7" stroke="#000000" stroke-width="2" id="path3088"/>
<path class="cls-2" d="m 162.41,47.1 c 0,0 0.3,-8.4 0,-13.8 -0.3,-5.4 3.7,-15.6 9.7,-12.6 6.2,3.2 22.8,1.9 33.9,-2.6 4.2,-1.3 7.7,8.3 8.4,16.1 0.7,7.9 1.5,11.9 2.5,12.8" stroke="#000000" stroke-width="2" id="path3090"/>
<path class="cls-2" d="m 161.01,45.5 c 0,0 -2.6,-8.1 -3.2,-14.8 -0.6,-6.7 1.9,-17.7 5.8,-20.3 0,0 0.7,-1.8 -0.5,-2.9 -1.2,-1.1 0.7,-2.9 4,-2.8 3.3,0.1 -1.2,-3.7 6,-2.2 3.4,0.2 3.2,-2.2 5.7,-1.3 0,0 17,-0.6 27.1,5.3 10.1,5.9 17.2,13.1 11.6,38.1" stroke="#000000" stroke-width="2" id="path3092"/>
</g>
<g id="g3100">
<path class="cls-2" d="m 212.81,76.4 c 0,0 -6,11.5 -23,14.5" stroke="#000000" stroke-width="2" id="path3096"/>
<path class="cls-2" d="m 166.61,76.4 c 0,0 6,11.5 23,14.5" stroke="#000000" stroke-width="2" id="path3098"/>
</g>
</g>
<g id="g3152">
<g id="g3126">
<path class="cls-2" d="m 275.31,167 v -0.9 c -0.4,-11.3 -4.5,-34.3 -29.9,-47.2" stroke="#000000" stroke-width="2" id="path3104"/>
<path class="cls-2" d="M 355.71,302.8 C 343.91,276 326.81,252 311.41,231.1" stroke="#000000" stroke-width="2" id="path3106"/>
<path class="cls-2" d="m 305.41,223 v 0 c -0.1,-0.1 -0.1,-0.2 -0.2,-0.2 -0.1,-0.1 -0.1,-0.2 -0.1,-0.2 -13.7,-22.2 -32.5,-40.9 -26,-55.4" stroke="#000000" stroke-width="2" id="path3108"/>
<path class="cls-2" d="m 197.91,123.3 c 26.9,12.7 35.8,35.6 77.4,43.7" stroke="#000000" stroke-width="2" id="path3110"/>
<path class="cls-2" d="m 224.51,379.9 c -10.8,57.2 0.9,82.9 -8.7,91.6" stroke="#000000" stroke-width="2" id="path3112"/>
<path class="cls-2" d="m 245.21,466.4 c -26,-10.6 10.9,-72.4 -4.6,-166.8" stroke="#000000" stroke-width="2" id="path3114"/>
<path class="cls-2" d="m 261.91,613.4 c -7.4,5.3 -18.2,3.7 -22.9,-3" stroke="#000000" stroke-width="2" id="path3116"/>
<path class="cls-2" d="m 251.31,499.2 c 3.4,47.6 4.5,62.6 5,116.7" stroke="#000000" stroke-width="2" id="path3118"/>
<path class="cls-2" d="m 236.11,507.3 c 0,0.3 9.5,66.6 12.6,108.9" stroke="#000000" stroke-width="2" id="path3120"/>
<path class="cls-2" d="m 305.11,222.6 c 0,0 7.5,10.2 -1.6,12.2" stroke="#000000" stroke-width="2" id="path3122"/>
<path class="cls-2" d="m 265.01,168.8 c 0,0 9.5,4.6 16.2,17.2" stroke="#000000" stroke-width="2" id="path3124"/>
</g>
<g id="g3150">
<path class="cls-2" d="m 103.91,167 v -0.9 c 0.4,-11.3 4.5,-34.3 29.9,-47.2" stroke="#000000" stroke-width="2" id="path3128"/>
<path class="cls-2" d="M 23.51,302.8 C 35.31,276 52.41,252 67.81,231.1" stroke="#000000" stroke-width="2" id="path3130"/>
<path class="cls-2" d="m 73.81,223 v 0 c 0.1,-0.1 0.1,-0.2 0.2,-0.2 0.1,-0.1 0.1,-0.2 0.1,-0.2 13.7,-22.2 32.5,-40.9 26,-55.4" stroke="#000000" stroke-width="2" id="path3132"/>
<path class="cls-2" d="m 181.31,123.3 c -26.9,12.7 -35.8,35.6 -77.4,43.7" stroke="#000000" stroke-width="2" id="path3134"/>
<path class="cls-2" d="m 154.71,379.9 c 10.8,57.2 -0.9,82.9 8.7,91.6" stroke="#000000" stroke-width="2" id="path3136"/>
<path class="cls-2" d="m 134.01,466.4 c 26,-10.6 -10.9,-72.4 4.6,-166.8" stroke="#000000" stroke-width="2" id="path3138"/>
<path class="cls-2" d="m 117.31,613.4 c 7.3,5.3 18.2,3.7 22.9,-3" stroke="#000000" stroke-width="2" id="path3140"/>
<path class="cls-2" d="m 127.91,499.2 c -3.4,47.6 -4.5,62.6 -5,116.7" stroke="#000000" stroke-width="2" id="path3142"/>
<path class="cls-2" d="m 143.11,507.3 c 0,0.3 -9.5,66.6 -12.6,108.9" stroke="#000000" stroke-width="2" id="path3144"/>
<path class="cls-2" d="m 74.11,222.6 c 0,0 -7.5,10.2 1.6,12.2" stroke="#000000" stroke-width="2" id="path3146"/>
<path class="cls-2" d="m 114.21,168.8 c 0,0 -9.5,4.6 -16.2,17.2" stroke="#000000" stroke-width="2" id="path3148"/>
</g>
</g>
</g>
</g>
</svg>